<?xml version="1.0" standalone="no"?>
<!DOCTYPE svg PUBLIC "-//W3C//DTD SVG 20010904//EN"
 "http://www.w3.org/TR/2001/REC-SVG-20010904/DTD/svg10.dtd">
<svg version="1.0" xmlns="http://www.w3.org/2000/svg"
 width="529.000000pt" height="505.000000pt" viewBox="0 0 529.000000 505.000000"
 preserveAspectRatio="xMidYMid meet">

<g transform="translate(0.000000,505.000000) scale(0.100000,-0.100000)"
fill="#000000" stroke="none">
<path d="M620 5031 c-127 -41 -200 -147 -200 -290 0 -37 7 -89 14 -116 l15
-48 -35 -41 c-32 -37 -64 -116 -64 -157 0 -30 -56 -77 -102 -84 -64 -11 -123
-42 -162 -86 -50 -55 -69 -103 -69 -179 -1 -111 55 -195 162 -243 60 -27 193
-28 266 -3 157 55 351 234 397 367 l10 30 57 -8 c134 -19 251 14 316 90 35 40
65 112 58 135 -9 26 -33 10 -43 -29 -31 -114 -183 -186 -326 -155 l-30 7 0
102 c1 94 -2 107 -29 160 -31 63 -63 95 -129 130 -49 26 -151 28 -207 3 l-36
-15 -12 38 c-15 51 -13 157 3 204 35 96 111 151 211 151 113 1 190 -65 224
-194 25 -96 51 -121 152 -145 62 -16 80 -25 119 -64 28 -28 50 -62 58 -88 7
-23 17 -45 23 -49 21 -12 27 19 14 63 -27 91 -99 152 -206 178 -81 18 -103 41
-124 127 -22 87 -63 143 -132 181 -54 29 -148 43 -193 28z m65 -442 c59 -17
129 -90 149 -158 20 -69 20 -123 0 -192 -27 -93 -82 -179 -169 -266 -66 -65
-100 -90 -171 -124 -85 -42 -93 -44 -179 -44 -105 0 -148 17 -208 84 -61 68
-72 163 -28 250 34 66 75 93 193 125 72 20 100 53 122 143 25 99 67 148 154
179 46 16 85 17 137 3z"/>
<path d="M2771 5024 c-30 -8 -75 -25 -100 -38 -28 -15 -72 -27 -112 -31 -200
-19 -381 -140 -473 -315 -52 -100 -70 -170 -69 -285 0 -84 5 -113 30 -185 53
-156 156 -275 298 -344 173 -86 359 -86 535 0 103 51 213 161 264 264 37 76
66 185 66 252 0 21 13 62 29 95 122 239 -17 533 -277 588 -83 18 -122 18 -191
-1z m197 -38 c145 -39 248 -155 274 -308 13 -79 -1 -155 -43 -235 -20 -38 -29
-70 -29 -102 -1 -189 -130 -390 -309 -479 -476 -238 -981 261 -751 743 82 171
261 293 458 311 43 3 85 15 116 31 102 54 185 65 284 39z"/>
<path d="M2862 4853 c2 -10 10 -18 18 -18 8 0 16 8 18 18 2 12 -3 17 -18 17
-15 0 -20 -5 -18 -17z"/>
<path d="M2974 4809 c-10 -17 13 -36 27 -22 12 12 4 33 -11 33 -5 0 -12 -5
-16 -11z"/>
<path d="M2470 4637 c-263 -59 -363 -380 -180 -580 70 -76 148 -110 255 -111
70 -1 88 3 145 30 104 50 168 125 195 231 8 32 15 74 15 94 0 86 -72 240 -99
213 -8 -7 -2 -28 21 -74 29 -56 33 -72 33 -144 0 -69 -4 -90 -28 -138 -31 -63
-86 -116 -156 -150 -68 -33 -177 -32 -252 3 -245 115 -245 454 0 567 44 21 72
26 131 26 65 0 84 -4 139 -32 35 -18 68 -32 73 -32 18 0 6 30 -19 48 -72 49
-182 69 -273 49z"/>
<path d="M3017 4233 c-4 -3 -7 -12 -7 -20 0 -15 26 -18 34 -4 7 11 -18 33 -27
24z"/>
<path d="M4561 5024 c-25 -9 -54 -22 -66 -30 -13 -9 -25 -10 -35 -4 -32 21
-88 11 -124 -21 -59 -51 -61 -128 -5 -180 l29 -27 0 -140 c0 -115 -3 -141 -15
-146 -33 -12 -55 -69 -55 -139 0 -65 2 -71 35 -104 26 -26 35 -44 35 -68 0
-24 -9 -42 -35 -68 l-35 -35 0 -97 c0 -119 14 -154 74 -185 33 -18 51 -21 79
-16 44 8 102 56 111 91 6 24 9 25 96 25 87 0 90 -1 96 -25 9 -35 67 -83 111
-91 28 -5 46 -2 79 16 60 31 74 66 74 185 l0 97 -35 35 c-26 26 -35 44 -35 68
0 24 9 42 35 68 33 33 35 39 35 104 0 70 -22 127 -55 139 -12 5 -15 31 -15
146 l0 140 29 27 c56 52 54 129 -5 180 -36 32 -92 42 -123 22 -9 -6 -31 0 -64
16 -64 33 -155 40 -216 17z m49 -92 c0 -11 -17 -29 -37 -43 -21 -13 -49 -41
-62 -62 -38 -58 -79 -41 -48 20 38 71 147 135 147 85z m58 -554 c2 -12 -8 -22
-32 -32 -39 -16 -44 -29 -48 -121 -3 -52 -6 -60 -23 -60 -17 0 -20 8 -23 60
-5 82 12 131 51 156 37 23 70 21 75 -3z m-218 -18 c64 -64 -31 -160 -97 -98
-46 43 -16 118 47 118 17 0 39 -9 50 -20z m500 0 c26 -26 25 -68 -2 -97 -27
-28 -67 -30 -96 -3 -46 43 -15 120 48 120 17 0 39 -9 50 -20z m-356 -274 c25
-60 87 -60 112 1 18 43 50 43 47 -1 -8 -104 -158 -127 -199 -30 -8 20 -13 43
-10 50 10 25 35 15 50 -20z m-103 -125 c70 -71 -2 -182 -98 -150 -36 12 -63
52 -63 94 0 40 50 85 95 85 27 0 44 -8 66 -29z m450 0 c70 -71 -2 -182 -98
-150 -36 12 -63 52 -63 94 0 40 50 85 95 85 27 0 44 -8 66 -29z"/>
<path d="M854 3150 c-101 -20 -200 -99 -249 -198 -34 -69 -43 -175 -21 -247
l15 -50 -29 -30 c-33 -34 -36 -46 -18 -75 12 -18 -12 -44 -265 -298 -199 -199
-277 -284 -277 -300 0 -29 43 -72 72 -72 16 0 101 78 300 277 254 253 280 277
298 265 29 -18 41 -15 75 18 l30 29 50 -15 c156 -48 351 43 418 195 94 211
-20 445 -242 497 -62 15 -96 16 -157 4z m207 -62 c115 -53 184 -160 184 -285
0 -39 -3 -74 -6 -78 -4 -3 -37 -1 -75 4 -54 8 -100 26 -207 81 -76 39 -142 68
-148 65 -24 -15 0 -35 119 -96 120 -63 167 -80 255 -94 20 -3 37 -9 37 -14 0
-23 -68 -104 -113 -134 -87 -58 -176 -71 -273 -42 -63 19 -58 20 -98 -16 l-35
-30 -61 61 -61 61 30 35 c36 40 35 35 16 98 -16 53 -20 143 -7 164 7 10 22 11
65 4 65 -10 93 0 63 23 -11 8 -34 15 -50 16 -64 1 -68 9 -30 65 87 130 254
177 395 112z m-703 -895 c-150 -150 -279 -273 -286 -273 -7 0 -15 7 -19 16 -4
11 71 93 268 290 260 260 274 273 292 257 17 -16 5 -30 -255 -290z"/>
<path d="M654 2589 c-3 -6 7 -25 25 -42 24 -25 33 -29 43 -19 9 9 6 18 -17 42
-31 33 -40 36 -51 19z"/>
<path d="M2872 3148 c-30 -38 -82 -221 -82 -291 l0 -39 -34 21 c-44 28 -110
36 -166 21 -37 -10 -65 -32 -156 -124 -92 -91 -114 -119 -124 -156 -15 -56 -7
-122 21 -166 l21 -34 -39 0 c-76 0 -280 -61 -297 -88 -3 -5 11 -40 32 -77 32
-59 45 -73 97 -101 51 -28 66 -43 96 -96 31 -55 45 -68 104 -100 37 -21 72
-35 77 -32 27 17 88 221 88 297 l0 39 34 -21 c44 -28 110 -36 166 -21 37 10
65 32 156 124 92 91 114 119 124 156 15 55 7 122 -20 165 l-20 32 68 7 c90 8
251 59 266 85 3 5 -11 39 -32 76 -32 59 -45 73 -100 104 -53 30 -68 45 -96 96
-28 52 -42 65 -101 98 -79 43 -70 40 -83 25z m-154 -378 c35 -22 39 -32 19
-49 -10 -8 -19 -7 -33 4 -10 8 -35 14 -54 14 -19 0 -44 -6 -54 -14 -19 -15
-46 -5 -46 16 0 17 65 49 100 49 19 0 50 -9 68 -20z m-180 -88 c4 -14 -88
-112 -107 -112 -6 0 -14 7 -18 16 -4 10 11 32 43 65 47 48 73 58 82 31z"/>
<path d="M4940 3115 c-69 -36 -100 -72 -100 -117 0 -24 -4 -28 -27 -28 -43 0
-89 -34 -103 -75 -6 -20 -9 -42 -6 -50 4 -11 -2 -15 -25 -15 -62 0 -108 -43
-109 -101 0 -35 -2 -37 -34 -37 -18 0 -43 -5 -55 -11 -26 -14 -51 -61 -51 -96
0 -18 -5 -25 -20 -25 -44 0 -90 -29 -106 -65 -20 -50 -10 -96 32 -136 l34 -33
-180 -181 c-99 -100 -180 -188 -180 -196 0 -25 30 -59 53 -59 15 0 76 54 197
175 96 96 179 175 183 175 5 0 23 -11 41 -25 39 -30 93 -33 127 -7 13 10 39
24 58 32 38 15 71 62 71 101 0 23 5 27 42 32 52 7 85 41 94 98 6 37 9 39 41
39 48 0 93 45 93 94 0 30 4 36 20 36 63 0 120 55 120 115 0 21 5 25 28 25 66
0 123 74 107 138 -8 34 -170 200 -212 218 -45 19 -59 17 -133 -21z m151 -41
l34 -36 -59 26 c-32 14 -60 26 -62 26 -2 0 -4 5 -4 10 0 6 13 10 28 10 19 0
39 -11 63 -36z m4 -66 c111 -51 155 -84 155 -117 0 -30 -39 -71 -67 -71 -33 0
-263 107 -285 132 -27 30 -23 73 9 98 34 26 44 24 188 -42z m-138 -138 c70
-33 133 -67 140 -77 22 -29 16 -70 -13 -92 -15 -12 -33 -21 -41 -21 -28 0
-258 112 -280 136 -13 14 -23 34 -23 45 0 26 43 69 69 69 11 0 77 -27 148 -60z
m-141 -135 c65 -31 126 -63 136 -72 41 -37 10 -115 -45 -115 -14 0 -82 26
-152 58 -106 49 -130 64 -140 88 -14 32 -11 51 13 79 25 28 64 20 188 -38z
m-225 -136 c33 -15 49 -27 49 -40 0 -30 -17 -31 -70 -4 -46 23 -60 42 -43 58
9 9 8 10 64 -14z m-46 -139 c72 -33 136 -68 143 -77 29 -39 -5 -113 -52 -113
-30 0 -276 116 -292 137 -7 10 -14 28 -14 41 0 27 42 72 67 72 10 0 77 -27
148 -60z m-25 -190 c33 -17 60 -32 60 -35 0 -3 -14 -5 -30 -5 -21 0 -42 11
-68 35 -46 43 -38 44 38 5z m-106 12 c3 -5 -74 -87 -169 -182 -137 -137 -177
-172 -187 -162 -9 9 25 49 157 182 159 160 186 182 199 162z"/>
<path d="M525 1266 c-97 -23 -168 -53 -242 -105 -115 -81 -195 -189 -240 -325
-22 -69 -27 -98 -27 -196 0 -98 5 -127 27 -196 47 -141 131 -252 254 -334 112
-75 210 -104 353 -104 98 0 127 4 197 28 195 64 345 215 410 410 22 69 27 98
27 196 0 98 -5 127 -27 196 -47 141 -131 252 -254 334 -135 90 -331 130 -478
96z m129 -55 c57 -109 71 -288 35 -423 -12 -44 -24 -77 -26 -74 -3 3 -16 35
-28 71 -44 125 -159 267 -266 328 -21 12 -39 26 -39 30 0 13 129 68 195 82 95
21 112 19 129 -14z m347 -88 c15 -13 15 -19 3 -61 -8 -25 -12 -53 -9 -61 8
-20 -4 -51 -20 -51 -8 0 -23 -17 -34 -38 -10 -20 -38 -57 -60 -82 l-42 -45 24
40 c40 67 76 169 89 249 12 76 15 79 49 49z m-642 -183 c34 -19 81 -51 104
-72 l42 -39 -40 24 c-66 39 -166 75 -249 89 l-78 13 21 27 21 26 59 -18 c32
-9 86 -32 120 -50z m838 -61 c18 -41 37 -107 44 -148 15 -87 13 -89 -91 -123
-101 -32 -245 -36 -348 -8 -46 12 -81 25 -78 27 3 3 35 16 71 28 125 44 267
159 328 266 12 21 27 37 32 36 6 -2 24 -37 42 -78z m-695 -200 c44 -12 77 -24
74 -26 -3 -3 -35 -16 -71 -28 -125 -44 -267 -159 -328 -266 -12 -21 -26 -39
-30 -39 -14 0 -68 130 -83 199 -20 96 -18 108 15 126 109 56 288 70 423 34z
m163 -184 c44 -125 159 -267 266 -328 21 -12 39 -26 39 -30 0 -24 -215 -96
-287 -97 -25 0 -56 59 -76 144 -6 26 -17 50 -24 53 -15 6 -18 49 -3 58 6 3 10
31 10 62 0 55 37 219 47 209 3 -3 16 -35 28 -71z m-228 -42 c-38 -61 -75 -163
-89 -247 l-13 -78 -27 21 -26 21 18 59 c22 74 72 168 117 221 43 50 50 51 20
3z m504 -76 c36 -14 100 -32 143 -39 l78 -13 -21 -27 -21 -26 -59 18 c-79 24
-174 75 -224 122 l-42 39 40 -24 c22 -13 69 -36 106 -50z"/>
<path d="M2524 1265 c-134 -24 -249 -97 -294 -185 -19 -37 -20 -60 -20 -440 0
-450 -2 -438 77 -515 72 -70 231 -124 363 -124 132 0 291 54 363 124 79 77 77
65 77 515 0 380 -1 403 -20 440 -46 90 -160 161 -299 186 -93 16 -154 16 -247
-1z m308 -54 c135 -43 220 -127 220 -218 0 -64 -19 -100 -84 -156 -40 -35 -50
-49 -41 -58 8 -8 22 -4 56 20 24 16 47 37 50 46 4 8 11 15 17 15 15 0 14 -547
-2 -608 -13 -53 -72 -118 -138 -152 -62 -32 -185 -60 -260 -60 -75 0 -198 28
-260 60 -66 34 -125 99 -138 152 -11 42 -18 608 -8 608 2 0 21 -16 42 -37 87
-81 247 -130 398 -120 110 8 196 31 196 54 0 17 -19 16 -120 -6 -189 -41 -433
39 -497 162 -23 44 -20 119 6 161 87 140 351 204 563 137z"/>
<path d="M2366 601 c-7 -11 18 -33 27 -24 4 3 7 12 7 20 0 15 -26 18 -34 4z"/>
<path d="M2920 316 c0 -8 4 -17 9 -20 11 -7 33 18 24 27 -12 12 -33 7 -33 -7z"/>
<path d="M2854 219 c-10 -17 13 -36 27 -22 12 12 4 33 -11 33 -5 0 -12 -5 -16
-11z"/>
<path d="M5085 1269 c-22 -5 -85 -32 -141 -59 -55 -28 -104 -50 -107 -50 -4 0
-25 12 -47 26 l-39 26 -48 -40 c-120 -100 -232 -235 -310 -372 -39 -68 -43
-81 -43 -145 -1 -49 -8 -86 -24 -125 -22 -54 -24 -56 -147 -126 -123 -71 -169
-113 -169 -156 0 -37 29 -86 68 -114 22 -16 50 -44 63 -63 29 -41 75 -71 110
-71 50 0 89 40 163 169 l71 124 70 30 c53 22 87 29 141 30 60 2 76 6 107 30
25 19 40 41 48 70 17 57 91 126 137 127 99 1 202 118 189 215 -5 34 1 55 44
141 82 166 87 272 15 319 -32 21 -97 27 -151 14z m95 -89 c0 -13 -9 -22 -27
-26 -16 -3 -52 -13 -81 -22 -40 -12 -55 -13 -64 -4 -9 9 -9 15 2 27 21 21 89
43 133 44 30 1 37 -2 37 -19z m-270 -120 c0 -5 -31 -31 -68 -58 -37 -28 -76
-60 -86 -71 -22 -24 -51 -27 -59 -6 -7 16 57 76 137 131 38 25 53 31 63 22 7
-6 13 -14 13 -18z m-590 -723 c0 -1 -44 -45 -97 -97 -84 -81 -87 -83 -20 -14
43 44 74 84 70 89 -4 4 -3 5 3 2 7 -4 17 0 24 8 11 14 20 19 20 12z"/>
</g>
</svg>
