<?xml version="1.0" standalone="no"?>
<!DOCTYPE svg PUBLIC "-//W3C//DTD SVG 20010904//EN"
 "http://www.w3.org/TR/2001/REC-SVG-20010904/DTD/svg10.dtd">
<svg version="1.0" xmlns="http://www.w3.org/2000/svg"
 width="1200.000000pt" height="1200.000000pt" viewBox="0 0 1200.000000 1200.000000"
 preserveAspectRatio="xMidYMid meet">

<g transform="translate(0.000000,1200.000000) scale(0.100000,-0.100000)"
fill="#000000" stroke="none">
<path d="M5921 10035 c-132 -37 -184 -112 -282 -408 -28 -83 -65 -178 -82
-210 -64 -122 -106 -136 -432 -147 -177 -5 -254 -12 -292 -24 -124 -39 -203
-148 -203 -278 0 -130 54 -200 284 -372 83 -62 173 -137 200 -167 l49 -54
-351 -5 -351 -5 -57 -40 c-31 -22 -73 -55 -93 -73 -49 -45 -108 -57 -119 -24
-3 9 3 11 21 7 34 -9 80 19 101 59 9 17 22 39 28 49 11 14 10 19 0 26 -11 6
-8 16 12 45 72 107 19 274 -104 329 -37 17 -76 22 -230 28 -102 3 -197 11
-211 17 -45 18 -76 68 -115 184 -47 142 -68 193 -101 241 -76 111 -252 126
-345 30 -45 -47 -76 -110 -118 -238 -18 -55 -44 -122 -57 -148 -35 -71 -61
-79 -278 -88 -106 -4 -196 -12 -220 -20 -58 -20 -118 -84 -135 -144 -29 -102
-9 -174 71 -252 l43 -43 -32 -11 c-123 -43 -297 -147 -393 -236 -72 -67 -78
-89 -18 -68 58 21 58 20 9 -22 -24 -21 -48 -38 -52 -38 -5 0 -23 -14 -41 -31
-18 -17 -46 -38 -63 -47 -17 -9 -42 -33 -56 -54 -39 -59 -80 -143 -69 -143 13
0 20 -25 14 -49 -7 -28 -21 -27 -25 2 -4 21 -5 20 -19 -7 -8 -17 -56 -70 -107
-120 -51 -49 -92 -94 -91 -100 1 -6 0 -27 -1 -46 l-3 -35 -6 35 -6 35 -51 -75
c-57 -83 -96 -159 -89 -170 3 -4 -1 -10 -8 -13 -21 -8 -76 -185 -93 -300 -15
-94 -14 -310 1 -325 2 -3 16 3 31 12 37 25 41 12 5 -15 -17 -13 -31 -28 -31
-35 0 -24 52 -190 75 -241 24 -53 47 -64 67 -30 5 9 20 17 33 17 13 0 26 4 29
8 3 5 19 7 36 4 19 -3 30 0 30 8 0 9 4 9 13 2 6 -6 29 -13 50 -17 45 -9 40
-19 -10 -22 -45 -3 -162 -38 -186 -55 -17 -13 -15 -17 24 -78 56 -88 152 -205
157 -191 2 6 8 11 14 11 5 0 7 -8 3 -19 -10 -33 171 -174 323 -250 68 -35 66
-36 62 42 -1 21 3 37 9 37 6 0 11 -21 11 -50 0 -67 17 -82 132 -118 90 -29
226 -58 232 -51 7 8 -14 170 -24 189 -6 11 -8 30 -5 42 5 21 0 24 -63 39 -83
20 -201 69 -275 113 l-56 34 -15 -22 c-16 -21 -16 -21 -10 7 5 22 1 31 -22 49
-165 127 -291 309 -350 503 -24 81 -27 106 -28 240 0 178 18 256 89 401 112
225 337 420 585 504 36 12 72 25 80 27 8 3 24 7 35 9 11 1 49 7 85 13 36 6 94
11 130 11 63 0 65 1 67 26 2 40 18 49 21 11 10 -134 97 -226 221 -235 76 -5
131 18 273 120 l111 78 94 0 94 0 114 -81 c127 -89 192 -119 262 -119 89 0
188 74 214 159 l12 41 279 0 c164 0 284 4 291 10 7 5 28 23 48 40 20 16 41 30
46 30 5 0 22 14 39 31 39 42 78 61 109 53 14 -3 25 -10 25 -16 0 -5 -9 -7 -20
-3 -29 9 -75 -20 -109 -70 -49 -72 -46 -75 69 -75 l100 0 6 28 c12 55 25 88
45 117 l20 30 -6 -45 c-4 -25 -13 -52 -20 -60 -7 -8 -15 -27 -17 -42 -4 -24
-2 -28 17 -28 17 0 26 -9 34 -32 27 -78 128 -160 216 -177 101 -19 205 20 369
138 55 39 110 71 122 71 14 0 25 8 29 20 3 11 10 20 15 20 4 0 6 -9 3 -20 -5
-20 0 -20 219 -20 l224 0 100 -71 c164 -118 268 -157 369 -138 88 17 189 99
216 177 l11 32 206 1 c114 0 227 0 251 -1 38 -1 43 0 33 13 -6 7 -9 17 -5 20
3 4 -2 7 -13 7 -19 1 -19 1 0 12 15 9 22 7 33 -8 7 -10 13 -24 13 -31 0 -10
44 -13 213 -13 l214 0 12 -41 c26 -85 125 -159 214 -159 70 0 135 30 262 119
63 45 123 81 134 81 11 0 22 6 24 13 4 10 6 10 6 0 1 -9 22 -13 70 -13 l68 0
111 -78 c142 -102 197 -125 273 -120 95 7 173 66 204 154 l13 39 116 -1 c77 0
116 3 116 10 0 6 4 5 9 -3 5 -8 51 -24 102 -37 130 -33 293 -116 404 -206 50
-40 92 -71 95 -70 3 1 5 -2 5 -8 0 -12 67 -99 78 -100 4 0 8 12 9 28 0 15 2
41 3 57 2 17 -2 35 -6 41 -6 8 -2 13 11 17 17 4 20 10 14 31 -4 16 -2 26 5 26
12 0 13 -5 16 -82 1 -26 7 -53 12 -60 6 -7 13 -36 15 -64 3 -34 12 -58 26 -72
14 -14 22 -33 21 -54 -1 -22 -3 -26 -6 -13 -3 11 -14 26 -24 33 -11 7 -19 20
-19 29 0 9 -3 13 -7 10 -3 -4 -13 -1 -21 6 -8 6 0 -14 18 -46 18 -33 45 -94
60 -137 23 -67 29 -76 44 -68 21 12 22 10 31 -23 5 -21 2 -27 -14 -32 -20 -5
-20 -10 -15 -114 6 -95 0 -171 -21 -273 -3 -14 -3 -20 1 -13 5 12 34 7 34 -6
0 -4 -13 -15 -30 -24 -16 -10 -30 -24 -30 -32 0 -26 -94 -199 -142 -261 -84
-110 -217 -220 -357 -296 -28 -15 -31 -22 -32 -65 -1 -58 -7 -95 -20 -131 -9
-24 -12 -25 -20 -10 -7 12 -5 31 5 60 14 44 19 118 8 118 -4 0 -32 -9 -62 -21
-114 -43 -217 -59 -422 -66 l-197 -6 -19 -56 c-10 -31 -26 -76 -34 -101 -8
-25 -19 -53 -23 -64 -8 -17 2 -18 266 -13 203 4 292 9 344 21 38 9 72 20 75
24 3 4 14 7 25 7 13 0 22 10 29 33 10 36 29 38 34 4 l3 -21 49 19 c167 66 327
169 450 290 81 79 90 92 90 124 0 30 5 39 33 55 52 32 67 51 118 156 210 434
132 927 -205 1284 -49 52 -78 92 -90 126 -32 87 -108 225 -166 304 -104 139
-276 286 -412 352 -45 21 -48 22 -66 6 -10 -9 -25 -17 -33 -17 -8 0 -5 6 9 16
38 26 38 26 -92 74 l-29 11 38 37 c74 73 93 148 65 247 -17 60 -77 124 -135
144 -24 8 -114 16 -220 20 -217 9 -243 17 -278 88 -13 26 -39 93 -57 148 -42
128 -73 191 -118 238 -93 96 -269 81 -345 -30 -33 -48 -54 -99 -101 -241 -39
-116 -70 -166 -115 -184 -14 -6 -109 -14 -211 -17 -154 -6 -193 -11 -230 -28
-123 -55 -176 -222 -104 -329 20 -29 23 -39 12 -45 -10 -7 -8 -9 5 -9 18 0
101 -60 93 -67 -1 -2 -43 15 -91 37 -68 31 -90 38 -97 28 -4 -7 -5 -20 -2 -28
3 -8 8 -38 11 -65 5 -45 2 -55 -21 -82 -15 -18 -33 -30 -40 -27 -7 3 -21 -4
-31 -16 l-18 -20 255 0 c224 0 257 -2 262 -16 12 -31 6 -103 -14 -168 l-21
-65 -332 -3 c-183 -2 -412 -2 -509 0 l-178 3 -39 122 c-21 67 -38 123 -37 124
1 1 127 3 279 4 302 3 285 -1 317 63 8 16 22 31 32 33 9 3 19 15 23 26 14 41
34 112 35 120 0 4 -36 7 -79 7 -73 0 -79 -2 -74 -19 3 -10 0 -22 -7 -26 -14
-9 -17 -6 -22 20 -3 19 -13 20 -262 25 l-259 5 49 54 c27 30 117 105 200 167
230 172 284 242 284 372 0 130 -79 239 -203 278 -38 12 -115 19 -292 24 -326
11 -368 25 -432 147 -17 32 -54 128 -83 213 -69 209 -108 287 -169 342 -74 66
-173 90 -270 63z m117 -199 c40 -20 76 -95 139 -279 29 -88 70 -192 90 -230
61 -116 150 -191 268 -227 22 -6 148 -16 280 -20 132 -5 255 -13 274 -19 48
-15 81 -49 81 -83 0 -64 -39 -104 -246 -256 -133 -97 -227 -195 -263 -271 -20
-44 -27 -76 -29 -145 -5 -109 6 -164 68 -360 57 -179 68 -242 50 -286 -37 -89
-122 -65 -350 99 -213 154 -329 197 -465 174 -88 -15 -186 -66 -335 -174 -228
-164 -313 -188 -350 -99 -18 44 -7 107 50 286 62 196 73 251 68 360 -2 69 -9
101 -29 145 -36 76 -130 174 -263 271 -207 152 -246 192 -246 256 0 34 33 68
81 83 19 6 142 14 274 19 132 4 258 14 280 20 118 36 207 111 268 227 20 38
61 142 90 230 62 181 99 258 136 278 33 18 46 18 79 1z m-2600 -751 c11 -14
35 -71 52 -128 45 -140 81 -217 125 -265 77 -86 151 -111 330 -113 285 -2 306
-27 128 -159 -128 -95 -198 -163 -231 -225 -24 -45 -27 -60 -26 -145 0 -83 6
-111 43 -225 74 -228 51 -253 -125 -129 -203 144 -287 172 -410 139 -61 -16
-95 -36 -288 -169 -81 -55 -119 -59 -124 -12 -2 15 16 89 40 165 38 120 43
147 43 231 0 150 -34 201 -240 356 -113 86 -139 113 -129 138 9 25 33 28 224
35 169 7 190 9 241 33 106 48 157 122 223 323 56 170 83 203 124 150z m5192
-7 c11 -18 36 -82 56 -143 66 -201 117 -275 223 -323 50 -23 72 -26 245 -33
167 -7 191 -10 208 -27 19 -19 19 -19 -8 -51 -15 -18 -78 -70 -140 -117 -169
-126 -205 -180 -212 -314 -3 -70 1 -100 22 -170 55 -182 67 -233 62 -256 -9
-35 -42 -31 -111 17 -265 179 -301 196 -406 186 -76 -7 -150 -42 -269 -127
-213 -152 -236 -136 -158 105 36 113 41 142 42 225 1 85 -2 100 -26 145 -33
62 -103 130 -231 225 -101 74 -131 110 -109 132 17 17 100 26 237 27 275 2
357 70 455 378 47 151 81 185 120 121z m-4125 -728 c6 -10 -15 -50 -27 -50
-10 0 -11 44 -1 53 9 10 21 9 28 -3z m2568 -32 c-8 -61 -24 -85 -19 -28 3 25
5 51 5 58 1 6 5 12 10 12 5 0 7 -19 4 -42z m303 -45 c-10 -10 -19 5 -10 18 6
11 8 11 12 0 2 -7 1 -15 -2 -18z m44 17 c0 -5 -2 -10 -4 -10 -3 0 -8 5 -11 10
-3 6 -1 10 4 10 6 0 11 -4 11 -10z m-2944 -37 c-10 -10 -19 5 -10 18 6 11 8
11 12 0 2 -7 1 -15 -2 -18z m542 -1 c2 -7 -2 -10 -12 -6 -9 3 -16 11 -16 16 0
13 23 5 28 -10z m123 -134 c4 -2 -11 -58 -32 -125 l-40 -123 -509 0 -509 0
-21 66 c-11 36 -20 86 -20 111 0 85 -51 78 571 76 305 -2 557 -4 560 -5z
m4219 -29 c102 -27 241 -96 328 -163 l72 -56 -1 33 c-2 41 -11 77 -26 102 -13
20 -13 20 -28 1 -8 -11 -15 -16 -15 -11 0 13 32 45 45 45 18 0 44 -72 52 -142
4 -43 13 -68 30 -89 17 -19 20 -27 9 -23 -11 4 -16 0 -16 -14 0 -35 -19 -35
-28 0 -8 31 -12 34 -93 54 -157 40 -369 57 -369 30 0 -8 -5 -16 -11 -18 -9 -3
-9 -10 -2 -23 7 -14 7 -28 0 -45 -11 -23 -12 -21 -15 23 -2 28 2 55 9 63 9 12
5 14 -25 14 -42 0 -48 10 -73 125 -11 53 -12 77 -4 98 12 32 23 32 161 -4z
m390 -23 c-1 -21 -1 -21 -15 -2 -8 11 -15 29 -15 40 1 21 1 21 15 2 8 -11 15
-29 15 -40z m-6945 15 c6 -27 -12 -127 -34 -183 -10 -28 -11 -28 -103 -28
-121 0 -251 -16 -362 -45 l-88 -23 48 49 c99 101 263 196 410 238 100 29 121
27 129 -8z m-610 -51 c-3 -5 -11 -10 -16 -10 -6 0 -7 5 -4 10 3 6 11 10 16 10
6 0 7 -4 4 -10z m6 -69 c-14 -26 -28 -27 -26 -3 2 28 16 45 27 34 6 -6 6 -17
-1 -31z m-11 -62 c0 -5 -4 -9 -10 -9 -5 0 -10 7 -10 16 0 8 5 12 10 9 6 -3 10
-10 10 -16z m7810 -130 c37 -62 42 -93 14 -82 -8 3 -14 13 -14 23 0 9 -13 42
-30 73 -53 99 -32 89 30 -14z m-150 61 c0 -5 -5 -10 -11 -10 -5 0 -7 5 -4 10
3 6 8 10 11 10 2 0 4 -4 4 -10z m54 4 c9 -3 14 -10 11 -14 -6 -10 -45 -1 -45
11 0 10 12 11 34 3z m-7734 -74 c0 -5 -4 -10 -10 -10 -5 0 -10 5 -10 10 0 6 5
10 10 10 6 0 10 -4 10 -10z m313 -57 c2 -13 1 -23 -3 -23 -15 0 -35 34 -36 63
l-2 31 18 -24 c10 -14 20 -35 23 -47z m4963 31 c16 -38 14 -54 -3 -32 -12 16
-26 68 -18 68 3 0 13 -16 21 -36z m2239 26 c-3 -5 -13 -10 -21 -10 -8 0 -12 5
-9 10 3 6 13 10 21 10 8 0 12 -4 9 -10z m-7055 -31 c-7 -11 -14 -18 -17 -15
-3 3 0 12 7 21 18 21 23 19 10 -6z m1505 11 c3 -5 -1 -10 -9 -10 -9 0 -16 5
-16 10 0 6 4 10 9 10 6 0 13 -4 16 -10z m535 -11 c0 -5 -4 -9 -10 -9 -5 0 -10
7 -10 16 0 8 5 12 10 9 6 -3 10 -10 10 -16z m-2512 -43 c0 -24 -5 -50 -10 -57
-6 -9 -7 5 -4 41 3 30 6 56 6 58 0 1 2 2 5 2 2 0 4 -20 3 -44z m2502 -10 c0
-27 -14 -41 -30 -31 -11 7 8 55 22 55 4 0 8 -11 8 -24z m-2260 -48 c0 -23 -3
-29 -11 -21 -6 6 -8 20 -4 32 9 30 15 26 15 -11z m-360 -22 c0 -3 -4 -8 -10
-11 -5 -3 -10 -1 -10 4 0 6 5 11 10 11 6 0 10 -2 10 -4z m41 -22 c8 -9 14 -30
15 -46 2 -26 0 -28 -12 -16 -17 17 -36 78 -25 78 5 0 15 -7 22 -16z m-151 -28
c0 -8 -7 -16 -15 -20 -13 -4 -14 -2 -5 14 13 23 20 26 20 6z m-85 -176 c3 -5
-1 -10 -9 -10 -9 0 -16 5 -16 10 0 6 4 10 9 10 6 0 13 -4 16 -10z m-282 -640
c-7 -27 -22 -35 -29 -16 -7 18 13 49 26 41 5 -3 6 -14 3 -25z m-3 -54 c0 -3
-4 -8 -10 -11 -5 -3 -10 -1 -10 4 0 6 5 11 10 11 6 0 10 -2 10 -4z m8920 -86
c0 -30 -15 -49 -22 -28 -7 19 4 68 13 62 5 -3 9 -18 9 -34z m-30 -170 c0 -5 7
-10 15 -10 8 0 15 4 15 9 0 10 48 2 56 -10 3 -5 -7 -9 -23 -9 -15 0 -35 -5
-43 -10 -16 -10 -54 16 -44 31 7 12 24 11 24 -1z m-340 -475 c0 -8 -4 -15 -10
-15 -5 0 -10 7 -10 15 0 8 5 15 10 15 6 0 10 -7 10 -15z m-8145 -155 c-3 -5
-11 -10 -16 -10 -6 0 -7 5 -4 10 3 6 11 10 16 10 6 0 7 -4 4 -10z m265 -60 c0
-5 -2 -10 -4 -10 -3 0 -8 5 -11 10 -3 6 -1 10 4 10 6 0 11 -4 11 -10z m128
-92 c9 -9 15 -9 24 0 7 7 17 12 22 12 6 0 0 -7 -12 -16 -25 -17 -98 -12 -87 7
9 13 39 11 53 -3z"/>
<path d="M4365 8359 c-12 -18 1 -20 36 -5 l34 15 -32 1 c-17 0 -35 -5 -38 -11z"/>
<path d="M2006 7938 c-19 -24 -33 -45 -30 -47 6 -6 44 30 44 42 0 6 7 19 17
29 9 10 14 18 10 18 -3 0 -21 -19 -41 -42z"/>
<path d="M4733 7646 c-47 -16 -51 -26 -11 -26 24 0 38 5 42 16 9 22 6 23 -31
10z"/>
<path d="M4032 7095 c-220 -48 -345 -253 -329 -540 10 -168 53 -273 152 -363
81 -74 143 -96 280 -96 139 0 199 21 285 101 74 68 135 179 107 195 -9 5 -17
14 -17 20 0 7 6 6 15 -2 20 -17 24 -12 31 41 18 140 12 289 -11 289 -8 0 -17
4 -20 10 -4 6 1 7 11 3 47 -18 -33 165 -103 235 -59 59 -136 97 -228 113 -76
13 -81 10 -111 -56 -7 -16 -13 -23 -13 -15 0 8 6 26 14 40 16 28 18 40 8 39
-5 0 -37 -7 -71 -14z m28 -160 c0 -8 -94 -46 -124 -50 -16 -2 -53 -20 -82 -40
-30 -19 -54 -30 -54 -25 0 6 14 19 31 28 18 9 41 27 52 40 15 16 32 22 61 22
23 1 52 7 66 15 25 14 50 19 50 10z m143 -26 c73 -38 112 -117 122 -250 21
-262 -78 -421 -236 -379 -87 24 -133 108 -145 265 -13 168 28 309 102 352 43
25 121 31 157 12z m287 -9 c0 -5 -5 -10 -11 -10 -5 0 -7 5 -4 10 3 6 8 10 11
10 2 0 4 -4 4 -10z m-55 -40 c-3 -5 -16 -15 -28 -21 l-22 -12 20 21 c21 22 41
30 30 12z m-55 -34 c0 -3 -4 -8 -10 -11 -5 -3 -10 -1 -10 4 0 6 5 11 10 11 6
0 10 -2 10 -4z m-490 -196 c0 -5 -2 -10 -4 -10 -3 0 -8 5 -11 10 -3 6 -1 10 4
10 6 0 11 -4 11 -10z m30 -300 c0 -5 -4 -10 -10 -10 -5 0 -10 5 -10 10 0 6 5
10 10 10 6 0 10 -4 10 -10z m350 -60 c0 -5 -7 -10 -16 -10 -8 0 -12 5 -9 10 3
6 10 10 16 10 5 0 9 -4 9 -10z m-360 -20 c0 -5 -5 -10 -11 -10 -5 0 -7 5 -4
10 3 6 8 10 11 10 2 0 4 -4 4 -10z m50 -44 c0 -3 -4 -8 -10 -11 -5 -3 -10 -1
-10 4 0 6 5 11 10 11 6 0 10 -2 10 -4z m175 -16 c3 -5 -1 -10 -9 -10 -9 0 -16
5 -16 10 0 6 4 10 9 10 6 0 13 -4 16 -10z m75 -20 c0 -5 -5 -10 -11 -10 -5 0
-7 5 -4 10 3 6 8 10 11 10 2 0 4 -4 4 -10z"/>
<path d="M6990 7096 c-193 -43 -309 -190 -333 -423 l-6 -53 27 17 27 16 -28
-24 c-27 -23 -28 -26 -21 -91 4 -38 10 -68 13 -68 4 0 6 -17 6 -38 0 -57 64
-180 121 -231 136 -127 358 -147 521 -49 98 59 171 175 194 311 16 97 7 279
-16 332 -10 22 -18 45 -19 50 -3 29 -46 96 -91 141 -62 62 -115 91 -204 110
-79 16 -118 16 -191 0z m235 -67 c12 -19 -5 -23 -22 -6 -16 16 -16 17 -1 17 9
0 20 -5 23 -11z m-117 -58 c3 -8 -1 -12 -9 -9 -7 2 -15 10 -17 17 -3 8 1 12 9
9 7 -2 15 -10 17 -17z m61 -72 c46 -28 67 -55 87 -112 l16 -49 22 21 c15 14
36 21 64 21 22 0 44 5 47 10 3 6 14 10 23 10 24 0 -49 -37 -85 -43 -66 -10
-68 -15 -69 -165 0 -117 -4 -145 -23 -194 -70 -178 -282 -162 -336 26 -14 47
-16 87 -13 200 5 149 16 196 61 245 49 53 145 67 206 30z m-389 -111 c0 -5 -4
-8 -10 -8 -5 0 -10 10 -10 23 0 18 2 19 10 7 5 -8 10 -18 10 -22z m20 -56 c0
-15 -2 -15 -10 -2 -13 20 -13 33 0 25 6 -3 10 -14 10 -23z m684 -14 c10 -10
13 -18 7 -18 -5 0 -13 5 -17 11 -3 6 -19 9 -35 7 -15 -3 -30 0 -32 6 -7 18 58
12 77 -6z m-710 -43 c3 -8 1 -15 -4 -15 -6 0 -10 7 -10 15 0 8 2 15 4 15 2 0
6 -7 10 -15z m-24 0 c0 -2 -10 -9 -22 -15 -22 -11 -22 -10 -4 4 21 17 26 19
26 11z m126 -19 c7 -28 -2 -49 -17 -41 -12 8 -12 65 1 65 5 0 12 -11 16 -24z
m571 -88 c-3 -8 -6 -5 -6 6 -1 11 2 17 5 13 3 -3 4 -12 1 -19z m-617 -145 c0
-20 -3 -24 -11 -16 -7 7 -9 19 -6 27 10 24 17 19 17 -11z m350 -233 c0 -5 -2
-10 -4 -10 -3 0 -8 5 -11 10 -3 6 -1 10 4 10 6 0 11 -4 11 -10z"/>
<path d="M7980 7090 c0 -23 10 -26 28 -8 7 7 12 8 12 2 0 -6 -3 -14 -7 -18 -4
-3 -8 -13 -9 -21 -3 -22 109 -21 126 1 8 8 23 20 34 26 20 11 20 11 1 -18 -11
-16 -27 -45 -37 -64 -14 -27 -18 -30 -18 -13 0 22 -7 26 -68 38 -25 5 -39 2
-54 -12 -21 -18 -21 -18 -9 4 19 36 14 53 -16 54 -17 1 -21 3 -10 6 9 2 17 11
17 20 0 11 -5 13 -17 8 -10 -4 -36 -9 -58 -10 -86 -4 -187 -71 -224 -149 -41
-83 -16 -249 39 -263 11 -3 18 -9 15 -13 -8 -12 51 -58 116 -91 39 -19 59 -25
59 -17 0 8 5 6 10 -4 6 -9 34 -24 63 -34 120 -39 187 -89 187 -140 0 -71 -45
-104 -143 -104 -93 0 -145 39 -162 123 l-5 27 -115 0 -115 0 0 -37 c1 -71 61
-173 125 -213 30 -19 38 -20 52 -9 14 12 15 11 9 -7 -6 -18 1 -23 53 -39 32
-9 64 -14 70 -11 6 4 11 2 11 -3 0 -16 164 -14 225 3 154 41 229 130 227 270
-3 147 -85 232 -302 311 -41 15 -85 29 -97 30 -13 2 -30 10 -39 19 -15 16 -29
20 -49 16 -5 -1 -7 2 -3 5 4 4 3 16 -2 26 -9 17 -13 16 -57 -8 -27 -15 -59
-36 -73 -47 -13 -12 -19 -14 -12 -5 9 12 8 20 -5 39 -16 22 -16 23 1 17 10 -4
20 -7 22 -7 3 0 2 -4 -1 -10 -10 -16 1 -12 55 18 29 16 50 34 50 44 1 133 251
144 276 12 l6 -34 120 0 119 0 -7 38 c-25 143 -127 236 -287 262 -98 16 -127
14 -127 -10z m80 -534 c0 -8 -4 -18 -10 -21 -5 -3 -10 3 -10 14 0 12 5 21 10
21 6 0 10 -6 10 -14z m247 -318 c-3 -8 -6 -5 -6 6 -1 11 2 17 5 13 3 -3 4 -12
1 -19z"/>
<path d="M2912 6865 c108 -216 114 -225 138 -220 14 4 34 14 45 23 17 14 17
13 -2 -8 -12 -14 -23 -38 -26 -55 -4 -30 -4 -30 -6 -2 0 17 -7 27 -16 27 -12
0 -6 -18 22 -72 l38 -73 5 -190 5 -190 110 -3 c95 -2 111 0 122 15 9 12 13 66
13 186 l0 170 155 302 c85 167 155 306 155 309 0 4 -57 5 -127 4 l-128 -3 -87
-205 c-48 -113 -90 -203 -95 -201 -4 2 -23 41 -42 87 -19 46 -39 84 -46 84
-49 0 -154 -102 -124 -121 7 -4 11 -10 9 -13 -3 -2 -14 2 -24 10 -18 12 -18
16 -5 41 10 18 11 27 3 30 -6 2 -20 11 -30 19 -19 15 -19 16 0 10 11 -4 27 0
37 10 11 10 19 12 19 6 0 -6 -6 -13 -12 -15 -8 -3 -6 -6 5 -6 32 -2 117 43
117 62 0 20 -16 23 -23 5 -3 -7 -3 3 0 22 l6 35 -37 -42 c-21 -24 -43 -43 -49
-43 -6 0 1 12 15 28 44 47 52 70 38 113 -8 23 -20 39 -29 40 -10 0 -12 2 -4 6
9 3 10 10 3 24 -10 17 -23 19 -135 19 l-125 0 112 -225z m153 -156 c11 -16 1
-19 -13 -3 -7 8 -8 14 -3 14 5 0 13 -5 16 -11z"/>
<path d="M4690 7075 c0 -8 6 -12 13 -10 6 3 41 6 76 8 53 3 61 2 46 -9 -9 -7
-23 -10 -31 -7 -8 3 -34 2 -59 -1 l-45 -7 0 -161 c0 -141 2 -162 18 -174 16
-13 16 -14 -1 -8 -18 7 -19 -2 -15 -177 3 -164 6 -189 26 -232 37 -83 77 -123
160 -164 76 -38 76 -38 201 -38 158 1 218 21 297 100 43 43 56 65 73 121 20
65 21 89 19 394 -3 302 -4 325 -20 324 -10 -1 -15 2 -12 7 3 5 12 9 20 9 8 0
14 9 14 20 0 19 -7 20 -120 20 l-120 0 0 -75 c0 -75 0 -75 28 -76 l27 -1 -25
-7 c-24 -7 -25 -11 -28 -95 l-3 -89 26 17 c14 9 36 23 50 32 42 27 28 10 -25
-30 l-50 -38 0 -89 c0 -88 1 -90 33 -119 18 -18 26 -30 17 -29 -42 4 -46 0
-48 -56 -1 -30 -7 -66 -12 -81 -6 -14 -7 -31 -3 -37 3 -7 3 -9 -2 -5 -4 4 -21
-2 -38 -14 -66 -47 -174 -30 -221 35 -19 26 -21 45 -24 233 -2 122 -7 202 -13
199 -5 -4 -9 1 -9 9 0 8 5 18 10 21 6 3 10 38 10 77 0 65 -1 69 -17 57 -15
-12 -16 -12 -10 4 4 10 7 21 7 23 0 3 5 2 10 -1 6 -4 10 20 10 64 l0 70 -120
0 c-99 1 -120 -2 -120 -14z m718 -42 c-10 -2 -26 -2 -35 0 -10 3 -2 5 17 5 19
0 27 -2 18 -5z m-633 -33 c3 -5 1 -10 -4 -10 -6 0 -11 5 -11 10 0 6 2 10 4 10
3 0 8 -4 11 -10z m550 -60 c-3 -5 -14 -10 -23 -9 -14 0 -13 2 3 9 27 11 27 11
20 0z m43 -220 c27 -25 27 -33 5 -51 -16 -13 -17 -12 -5 2 11 14 8 21 -18 43
-18 14 -25 26 -18 26 8 0 24 -9 36 -20z m-103 -18 c-3 -3 -11 0 -18 7 -9 10
-8 11 6 5 10 -3 15 -9 12 -12z m73 -80 c-6 -16 -26 -38 -44 -50 -48 -32 -55
-27 -12 8 20 17 40 39 43 50 4 11 10 20 15 20 4 0 3 -13 -2 -28z m-3 -142 c3
-5 1 -10 -4 -10 -6 0 -11 5 -11 10 0 6 2 10 4 10 3 0 8 -4 11 -10z m-24 -45
c-1 -15 -24 -12 -29 3 -3 9 2 13 12 10 10 -1 17 -7 17 -13z m-51 -185 c0 -5
-2 -10 -4 -10 -3 0 -8 5 -11 10 -3 6 -1 10 4 10 6 0 11 -4 11 -10z m-35 -20
c3 -5 1 -10 -4 -10 -6 0 -11 5 -11 10 0 6 2 10 4 10 3 0 8 -4 11 -10z"/>
<path d="M5970 6595 l0 -495 87 0 c70 0 88 3 100 18 10 13 13 13 11 2 -2 -12
8 -15 46 -15 39 -1 50 3 54 17 4 18 5 18 17 1 12 -16 34 -18 174 -21 l161 -3
0 91 0 91 -112 -1 c-62 -1 -155 -1 -205 -1 l-93 1 0 405 0 405 -120 0 -120 0
0 -495z m180 215 c0 -5 -5 -10 -11 -10 -5 0 -7 5 -4 10 3 6 8 10 11 10 2 0 4
-4 4 -10z m0 -80 c0 -5 -2 -10 -4 -10 -3 0 -8 5 -11 10 -3 6 -1 10 4 10 6 0
11 -4 11 -10z m84 -499 c3 -5 28 -14 56 -21 27 -7 48 -16 45 -20 -7 -11 -96
17 -115 35 -9 10 -10 15 -3 15 7 0 14 -4 17 -9z m-4 -34 c0 -2 -11 -14 -25
-27 -14 -13 -25 -21 -25 -17 0 3 10 15 22 27 21 19 28 24 28 17z"/>
<path d="M8520 6595 l1 -495 85 0 c65 0 84 3 78 13 -6 10 -4 10 7 0 18 -17
159 -18 159 -1 0 9 3 9 12 0 16 -16 98 -16 98 1 0 7 9 18 20 25 24 15 26 5 3
-20 -15 -17 -12 -18 100 -18 l117 0 0 90 0 90 -74 0 c-63 0 -75 -3 -79 -17 -4
-17 -5 -17 -6 0 -1 15 -15 17 -140 17 -163 0 -148 -15 -143 143 l3 97 185 0
184 0 0 90 0 90 -185 0 -185 0 0 105 0 105 45 0 c42 0 46 2 65 39 11 22 25 43
31 47 8 5 9 3 3 -7 -4 -8 -7 -27 -6 -44 1 -21 -1 -25 -6 -13 -7 17 -8 16 -20
-2 -12 -20 -10 -20 133 -20 131 0 145 2 145 18 1 16 1 16 14 0 28 -37 36 -20
36 72 l0 90 -340 0 -340 0 0 -495z m330 475 c0 -5 -5 -10 -11 -10 -5 0 -7 5
-4 10 3 6 8 10 11 10 2 0 4 -4 4 -10z m94 -35 c-9 -14 -18 -25 -21 -25 -5 0 5
18 20 38 17 22 18 13 1 -13z m-361 -116 c3 -13 1 -19 -6 -16 -15 5 -22 37 -9
37 5 0 12 -9 15 -21z m52 -178 c3 -5 1 -12 -4 -15 -5 -3 -11 1 -15 9 -6 16 9
21 19 6z m155 -71 c0 -5 -2 -10 -4 -10 -3 0 -8 5 -11 10 -3 6 -1 10 4 10 6 0
11 -4 11 -10z m-50 -203 c0 -5 -4 -5 -10 -2 -5 3 -10 14 -10 23 0 15 2 15 10
2 5 -8 10 -19 10 -23z m310 -282 c-13 -14 -28 -25 -34 -25 -6 0 3 11 19 25 39
31 45 32 15 0z"/>
<path d="M2464 5695 c-4 -9 -1 -41 5 -71 7 -31 14 -81 16 -112 l4 -57 366 -3
c287 -2 371 0 383 10 12 10 16 10 19 0 4 -9 82 -12 355 -12 l350 1 38 25 c40
27 90 30 98 6 3 -9 -3 -11 -21 -7 -15 4 -37 0 -54 -9 -27 -15 -25 -15 59 -16
l86 0 24 37 c13 21 28 47 33 58 6 11 20 24 33 30 12 5 22 17 22 27 0 9 4 19 9
22 5 3 11 19 13 36 l5 30 -229 0 -228 0 0 -22 c0 -13 -5 -30 -11 -38 -8 -11
-9 -6 -5 23 l5 37 -244 0 c-243 -1 -244 -1 -251 -23 -3 -12 -21 -42 -39 -67
-17 -25 -35 -58 -39 -73 -3 -15 -11 -25 -16 -22 -15 9 1 68 25 95 13 14 30 39
39 56 l15 32 -412 4 c-226 3 -420 8 -429 12 -13 6 -20 3 -24 -9z m1696 -47 c0
-16 -3 -19 -11 -11 -6 6 -8 16 -5 22 11 17 16 13 16 -11z m40 12 c0 -5 -2 -10
-4 -10 -3 0 -8 5 -11 10 -3 6 -1 10 4 10 6 0 11 -4 11 -10z m-1670 -10 c0 -5
-5 -10 -11 -10 -5 0 -7 5 -4 10 3 6 8 10 11 10 2 0 4 -4 4 -10z m980 -109 c0
-17 -4 -33 -10 -36 -6 -4 -10 8 -10 29 0 20 5 36 10 36 6 0 10 -13 10 -29z"/>
<path d="M4357 5635 c5 -52 4 -58 -22 -85 -16 -17 -36 -30 -45 -30 -9 0 -31
-16 -50 -35 l-34 -35 609 0 c334 0 605 3 602 7 -4 3 -3 11 2 17 6 7 12 25 15
40 3 16 10 34 16 40 5 5 10 22 10 37 0 15 7 43 15 63 l15 36 -350 0 c-227 0
-349 -3 -345 -10 3 -5 -1 -29 -9 -53 -8 -24 -18 -71 -22 -105 -3 -34 -11 -62
-16 -62 -5 0 -6 23 -3 50 3 28 7 73 10 100 3 28 8 57 11 65 5 13 -22 15 -204
15 l-211 0 6 -55z"/>
<path d="M5500 5643 c-6 -27 -14 -55 -18 -63 -3 -8 -6 -19 -7 -25 -1 -5 -9
-27 -18 -47 -9 -21 -17 -42 -17 -48 0 -7 222 -10 690 -10 l690 0 0 23 1 22 18
-22 c19 -23 20 -23 338 -23 235 0 322 3 331 12 9 9 12 9 12 0 0 -9 63 -12 253
-12 233 0 255 1 270 18 10 10 17 22 17 27 0 5 7 16 15 25 9 10 18 39 21 67 6
44 10 51 45 70 22 12 39 19 39 16 0 -3 -13 -25 -30 -49 -16 -24 -36 -65 -44
-91 -8 -27 -17 -56 -21 -65 -6 -16 0 -18 58 -18 37 0 78 5 92 12 24 11 85 88
85 108 0 5 5 12 12 16 8 5 9 2 5 -9 -8 -21 -9 -20 43 -2 24 8 46 12 49 9 3 -4
0 -9 -7 -12 -8 -2 -29 -17 -47 -33 -18 -16 -37 -29 -42 -29 -5 0 -22 -13 -38
-30 l-29 -30 365 0 365 0 29 93 c17 50 30 95 30 99 0 3 3 10 8 14 4 4 7 13 7
21 0 11 -112 13 -636 13 -628 0 -635 -1 -629 -20 4 -11 2 -20 -3 -20 -5 0 -12
9 -15 20 -5 20 -14 20 -476 20 -414 0 -470 -2 -465 -15 4 -8 1 -15 -5 -15 -7
0 -14 7 -17 15 -5 12 -31 15 -145 15 l-139 0 0 -25 c0 -17 -9 -29 -27 -39 -16
-8 -39 -24 -52 -35 -13 -12 -29 -21 -35 -21 -6 0 -2 8 10 18 22 18 74 85 74
95 0 3 -183 6 -406 7 -396 0 -407 0 -441 -21 -18 -12 -40 -28 -48 -36 -8 -8
-15 -11 -15 -7 0 4 15 20 33 35 l32 28 -76 1 -76 0 -13 -47z m700 33 c0 -3 -4
-8 -10 -11 -5 -3 -10 -1 -10 4 0 6 5 11 10 11 6 0 10 -2 10 -4z m2750 -31 c-7
-8 -18 -15 -24 -15 -6 0 -2 7 8 15 25 19 32 19 16 0z m-2096 -65 c5 -31 11
-40 26 -40 30 0 24 -17 -11 -29 -18 -6 -33 -11 -35 -11 -2 0 -3 29 -2 64 3 71
12 78 22 16z m2029 7 c-15 -19 -34 -32 -40 -29 -21 7 -15 19 20 41 46 30 53
26 20 -12z m-1072 10 c-1 -12 -15 -9 -19 4 -3 6 1 10 8 8 6 -3 11 -8 11 -12z
m984 -37 c-6 -9 -10 -8 -17 4 -8 13 -13 15 -24 5 -8 -7 -24 -8 -41 -4 -27 7
-26 8 17 19 48 13 80 1 65 -24z m-315 3 c0 -11 -21 -43 -29 -43 -7 0 -8 21 -2
52 1 8 31 -1 31 -9z m-33 -95 c-3 -8 -6 -5 -6 6 -1 11 2 17 5 13 3 -3 4 -12 1
-19z"/>
<path d="M2720 4659 c0 -6 5 -20 11 -31 9 -17 13 -18 20 -7 16 25 10 49 -11
49 -11 0 -20 -5 -20 -11z"/>
<path d="M3060 4641 c0 -16 6 -32 13 -34 6 -3 0 -6 -15 -6 -28 -1 -28 -1 -28
-71 0 -49 -4 -70 -12 -70 -9 0 -9 -3 -2 -8 16 -11 16 -98 -1 -112 -19 -16 -19
-34 0 -50 12 -10 15 -46 15 -201 l0 -189 50 0 50 0 0 350 c0 347 0 350 -21
350 -12 0 -17 4 -14 11 11 16 -4 59 -20 59 -10 0 -15 -10 -15 -29z"/>
<path d="M8940 4659 c0 -17 20 -49 30 -49 6 0 10 14 10 30 0 23 -4 30 -20 30
-11 0 -20 -5 -20 -11z"/>
<path d="M9280 4641 c0 -16 6 -32 13 -34 6 -3 -7 -6 -30 -6 l-43 -1 0 -350 0
-350 55 0 55 0 2 213 3 212 58 -187 c32 -103 55 -193 52 -198 -12 -20 29 -39
83 -40 l52 0 0 350 0 350 -50 0 -50 0 0 -232 c0 -133 -4 -227 -9 -218 -5 8
-30 89 -55 180 -26 91 -54 189 -62 218 -10 33 -21 52 -30 52 -8 0 -12 5 -9 11
11 16 -4 59 -20 59 -10 0 -15 -10 -15 -29z"/>
<path d="M9680 4659 c0 -5 5 -7 10 -4 6 3 10 8 10 11 0 2 -4 4 -10 4 -5 0 -10
-5 -10 -11z"/>
<path d="M1650 4640 c0 -5 5 -10 11 -10 5 0 7 5 4 10 -3 6 -8 10 -11 10 -2 0
-4 -4 -4 -10z"/>
<path d="M2337 4630 c-3 -11 -1 -20 4 -20 5 0 9 9 9 20 0 11 -2 20 -4 20 -2 0
-6 -9 -9 -20z"/>
<path d="M7870 4640 c0 -5 5 -10 11 -10 5 0 7 5 4 10 -3 6 -8 10 -11 10 -2 0
-4 -4 -4 -10z"/>
<path d="M8557 4630 c-3 -11 -1 -20 4 -20 5 0 9 9 9 20 0 11 -2 20 -4 20 -2 0
-6 -9 -9 -20z"/>
<path d="M4100 4630 c0 -5 7 -10 16 -10 8 0 12 5 9 10 -3 6 -10 10 -16 10 -5
0 -9 -4 -9 -10z"/>
<path d="M4175 4630 c-3 -5 1 -10 10 -10 9 0 13 5 10 10 -3 6 -8 10 -10 10 -2
0 -7 -4 -10 -10z"/>
<path d="M10320 4630 c0 -5 7 -10 16 -10 8 0 12 5 9 10 -3 6 -10 10 -16 10 -5
0 -9 -4 -9 -10z"/>
<path d="M10400 4630 c0 -5 5 -10 11 -10 5 0 7 5 4 10 -3 6 -8 10 -11 10 -2 0
-4 -4 -4 -10z"/>
<path d="M4690 4620 c0 -5 5 -10 10 -10 6 0 10 5 10 10 0 6 -4 10 -10 10 -5 0
-10 -4 -10 -10z"/>
<path d="M10910 4620 c0 -5 5 -10 10 -10 6 0 10 5 10 10 0 6 -4 10 -10 10 -5
0 -10 -4 -10 -10z"/>
<path d="M2656 4612 c-4 -7 -16 -12 -27 -12 -15 0 -19 -8 -20 -40 -1 -22 -2
-45 -3 -52 -1 -9 14 -11 48 -9 31 2 46 -1 42 -7 -4 -6 -2 -13 3 -16 5 -4 12 2
14 11 3 10 5 1 6 -19 0 -21 -3 -38 -9 -38 -5 0 -10 -5 -10 -11 0 -5 5 -7 10
-4 7 4 10 -83 10 -254 l0 -261 55 0 55 0 1 238 c1 130 1 265 -1 300 l-2 62 55
0 c31 0 58 3 60 8 2 4 2 26 -1 50 l-4 42 -133 0 c-95 0 -134 3 -137 12 -3 9
-6 9 -12 0z"/>
<path d="M8876 4612 c-4 -7 -16 -12 -27 -12 -18 0 -19 -10 -19 -350 l0 -350
150 0 150 0 0 50 0 50 -95 0 -95 0 0 105 0 105 75 0 75 0 0 45 0 45 -75 0 -74
0 0 100 0 100 95 0 94 0 0 50 0 50 -119 0 c-84 0 -121 4 -123 12 -3 9 -6 9
-12 0z"/>
<path d="M1412 4601 c-38 -10 -77 -43 -98 -83 -21 -40 -22 -490 -1 -539 16
-39 57 -74 100 -84 22 -6 26 -12 22 -29 l-6 -21 18 21 c10 12 36 24 58 28 77
15 125 92 125 204 l0 52 -55 0 -55 0 0 -64 c0 -73 -14 -96 -60 -96 -55 0 -60
20 -60 262 0 205 1 219 20 238 24 24 48 25 78 4 19 -13 22 -24 22 -75 l0 -59
56 0 57 0 -5 69 c-4 46 -12 81 -26 104 -12 18 -18 38 -14 42 4 5 2 5 -5 1 -7
-4 -23 0 -35 8 -30 19 -94 27 -136 17z"/>
<path d="M1827 4596 c-99 -37 -109 -70 -105 -368 3 -260 4 -261 72 -312 39
-30 153 -30 192 0 68 51 69 52 72 311 3 202 1 243 -13 280 -30 79 -133 121
-218 89z m101 -102 c22 -15 22 -19 22 -244 0 -194 -2 -231 -16 -244 -19 -20
-64 -21 -90 -2 -17 13 -19 30 -22 181 -3 115 0 170 8 180 8 10 8 19 1 34 -15
27 -3 79 23 96 26 19 46 19 74 -1z"/>
<path d="M4263 4602 l-103 -3 0 -349 0 -350 149 0 c140 0 149 1 154 20 3 11 1
20 -4 20 -5 0 -9 14 -9 30 l0 30 -95 0 -95 0 0 100 0 100 75 0 75 0 0 50 0 50
-75 0 -74 0 0 100 1 100 94 0 94 0 0 49 0 49 -42 3 c-24 2 -89 3 -145 1z"/>
<path d="M4725 4601 c-3 -5 -1 -12 5 -16 5 -3 10 1 10 9 0 18 -6 21 -15 7z"/>
<path d="M10945 4601 c-3 -5 -1 -12 5 -16 5 -3 10 1 10 9 0 18 -6 21 -15 7z"/>
<path d="M2170 4250 l0 -350 50 0 50 0 1 218 1 217 28 -85 c16 -47 47 -145 70
-217 l41 -133 55 0 54 0 0 351 0 350 -52 -3 c-48 -3 -54 -6 -63 -32 -7 -22 -7
-30 3 -33 9 -4 12 -49 12 -181 0 -126 -3 -173 -11 -165 -6 6 -36 100 -68 209
l-58 199 -56 3 -57 3 0 -351z"/>
<path d="M3250 4519 c0 -73 -2 -80 -16 -68 -14 11 -15 9 -12 -17 2 -17 8 -28
16 -26 15 3 17 -113 2 -123 -6 -4 -6 -15 0 -31 6 -14 10 -99 10 -190 l0 -164
50 0 50 0 1 218 1 217 28 -85 c16 -47 47 -145 70 -217 l41 -133 55 0 54 0 0
350 0 350 -50 0 -50 0 -2 -231 -3 -232 -66 229 -65 229 -57 3 -57 3 0 -82z"/>
<path d="M3720 4296 c0 -298 0 -304 23 -337 33 -50 80 -71 148 -67 65 5 109
31 133 82 14 29 16 78 16 330 l0 296 -48 0 c-47 0 -49 -1 -59 -34 -6 -19 -7
-40 -2 -47 14 -22 11 -203 -3 -217 -9 -9 -9 -12 0 -12 9 0 12 -36 12 -133 0
-117 -2 -136 -18 -150 -24 -22 -65 -21 -85 1 -15 16 -17 53 -17 305 l0 287
-50 0 -50 0 0 -304z"/>
<path d="M4975 4590 c3 -5 8 -10 11 -10 2 0 4 5 4 10 0 6 -5 10 -11 10 -5 0
-7 -4 -4 -10z"/>
<path d="M8240 4250 l0 -350 50 0 50 0 2 227 3 228 44 -215 c24 -118 46 -221
49 -227 3 -10 71 -20 72 -10 1 1 23 106 49 232 l49 230 1 -82 c1 -57 -3 -83
-11 -86 -10 -4 -10 -7 0 -18 8 -9 12 -53 12 -146 l0 -133 55 0 55 0 0 350 0
350 -78 0 -78 0 -38 -202 c-21 -112 -42 -211 -45 -222 -5 -11 -25 68 -52 200
l-44 219 -72 3 -73 3 0 -351z"/>
<path d="M9689 4403 c-2 -401 1 -423 56 -471 37 -34 102 -49 155 -37 45 10 98
60 110 103 7 29 14 365 11 570 -1 32 -1 32 -50 32 l-50 0 -3 -291 c-3 -274 -4
-291 -22 -305 -26 -18 -61 -18 -80 2 -14 13 -16 55 -16 305 l0 289 -55 0 -55
0 -1 -197z"/>
<path d="M1720 4581 c0 -5 5 -13 10 -16 6 -3 10 -2 10 4 0 5 -4 13 -10 16 -5
3 -10 2 -10 -4z"/>
<path d="M2132 4565 c-15 -33 -15 -35 3 -35 10 0 15 10 15 30 0 37 -3 37 -18
5z"/>
<path d="M2538 4555 c-2 -20 -1 -38 3 -41 10 -6 18 59 9 69 -4 5 -10 -8 -12
-28z"/>
<path d="M7940 4581 c0 -5 5 -13 10 -16 6 -3 10 -2 10 4 0 5 -4 13 -10 16 -5
3 -10 2 -10 -4z"/>
<path d="M8758 4555 c-2 -20 -1 -38 3 -40 10 -7 20 58 10 68 -5 5 -10 -6 -13
-28z"/>
<path d="M8050 4565 c0 -5 5 -17 10 -25 5 -8 10 -10 10 -5 0 6 -5 17 -10 25
-5 8 -10 11 -10 5z"/>
<path d="M2341 4544 c0 -11 3 -14 6 -6 3 7 2 16 -1 19 -3 4 -6 -2 -5 -13z"/>
<path d="M10152 4535 c0 -16 2 -22 5 -12 2 9 2 23 0 30 -3 6 -5 -1 -5 -18z"/>
<path d="M912 4530 c0 -14 2 -19 5 -12 2 6 2 18 0 25 -3 6 -5 1 -5 -13z"/>
<path d="M7132 4530 c0 -14 2 -19 5 -12 2 6 2 18 0 25 -3 6 -5 1 -5 -13z"/>
<path d="M7970 4531 c0 -5 5 -13 10 -16 6 -3 10 -2 10 4 0 5 -4 13 -10 16 -5
3 -10 2 -10 -4z"/>
<path d="M4488 4523 c7 -3 16 -2 19 1 4 3 -2 6 -13 5 -11 0 -14 -3 -6 -6z"/>
<path d="M4810 4505 c0 -14 5 -25 10 -25 6 0 10 11 10 25 0 14 -4 25 -10 25
-5 0 -10 -11 -10 -25z"/>
<path d="M4925 4520 c-3 -5 1 -10 9 -10 9 0 16 5 16 10 0 6 -4 10 -9 10 -6 0
-13 -4 -16 -10z"/>
<path d="M10708 4523 c7 -3 16 -2 19 1 4 3 -2 6 -13 5 -11 0 -14 -3 -6 -6z"/>
<path d="M11030 4505 c0 -14 5 -25 10 -25 6 0 10 11 10 25 0 14 -4 25 -10 25
-5 0 -10 -11 -10 -25z"/>
<path d="M11145 4520 c-3 -5 1 -10 9 -10 9 0 16 5 16 10 0 6 -4 10 -9 10 -6 0
-13 -4 -16 -10z"/>
<path d="M1275 4510 c-3 -5 -1 -10 4 -10 6 0 11 5 11 10 0 6 -2 10 -4 10 -3 0
-8 -4 -11 -10z"/>
<path d="M2976 4507 c3 -10 9 -15 12 -12 3 3 0 11 -7 18 -10 9 -11 8 -5 -6z"/>
<path d="M4110 4512 c0 -5 7 -13 16 -16 10 -4 14 -1 12 6 -5 15 -28 23 -28 10z"/>
<path d="M9196 4505 c4 -8 8 -15 10 -15 2 0 4 7 4 15 0 8 -4 15 -10 15 -5 0
-7 -7 -4 -15z"/>
<path d="M10330 4512 c0 -5 7 -13 16 -16 10 -4 14 -1 12 6 -5 15 -28 23 -28
10z"/>
<path d="M10431 4494 c0 -11 3 -14 6 -6 3 7 2 16 -1 19 -3 4 -6 -2 -5 -13z"/>
<path d="M2866 4462 c-3 -5 1 -18 9 -28 14 -18 14 -18 15 3 0 23 -15 39 -24
25z"/>
<path d="M9086 4462 c-3 -5 1 -18 9 -28 14 -18 14 -18 15 3 0 23 -15 39 -24
25z"/>
<path d="M10390 4456 c0 -9 5 -16 10 -16 6 0 10 4 10 9 0 6 -4 13 -10 16 -5 3
-10 -1 -10 -9z"/>
<path d="M8465 4448 c-3 -8 -1 -27 5 -43 13 -35 33 -21 28 21 -3 30 -25 44
-33 22z"/>
<path d="M4496 4435 c4 -8 8 -15 10 -15 2 0 4 7 4 15 0 8 -4 15 -10 15 -5 0
-7 -7 -4 -15z"/>
<path d="M9440 4431 c0 -22 16 -36 24 -22 8 12 -3 41 -15 41 -5 0 -9 -9 -9
-19z"/>
<path d="M10716 4435 c4 -8 8 -15 10 -15 2 0 4 7 4 15 0 8 -4 15 -10 15 -5 0
-7 -7 -4 -15z"/>
<path d="M680 4431 c0 -5 7 -12 16 -15 22 -9 24 -8 24 9 0 8 -9 15 -20 15 -11
0 -20 -4 -20 -9z"/>
<path d="M4280 4430 c0 -5 5 -10 10 -10 6 0 10 5 10 10 0 6 -4 10 -10 10 -5 0
-10 -4 -10 -10z"/>
<path d="M6900 4431 c0 -5 7 -12 16 -15 22 -9 24 -8 24 9 0 8 -9 15 -20 15
-11 0 -20 -4 -20 -9z"/>
<path d="M10500 4430 c0 -5 5 -10 10 -10 6 0 10 5 10 10 0 6 -4 10 -10 10 -5
0 -10 -4 -10 -10z"/>
<path d="M991 4414 c0 -11 3 -14 6 -6 3 7 2 16 -1 19 -3 4 -6 -2 -5 -13z"/>
<path d="M7211 4414 c0 -11 3 -14 6 -6 3 7 2 16 -1 19 -3 4 -6 -2 -5 -13z"/>
<path d="M1645 4400 c-4 -12 -5 -24 -2 -27 3 -2 8 5 12 17 4 12 5 24 2 27 -3
2 -8 -5 -12 -17z"/>
<path d="M7871 4413 c-1 -6 -4 -20 -7 -30 -5 -17 -5 -17 6 0 6 10 9 23 6 30
-3 9 -5 9 -5 0z"/>
<path d="M810 4400 c0 -5 10 -10 23 -10 18 0 19 2 7 10 -19 13 -30 13 -30 0z"/>
<path d="M7030 4400 c0 -5 10 -10 23 -10 18 0 19 2 7 10 -19 13 -30 13 -30 0z"/>
<path d="M2570 4390 c0 -5 5 -10 10 -10 6 0 10 5 10 10 0 6 -4 10 -10 10 -5 0
-10 -4 -10 -10z"/>
<path d="M8040 4386 c0 -9 5 -16 10 -16 6 0 10 4 10 9 0 6 -4 13 -10 16 -5 3
-10 -1 -10 -9z"/>
<path d="M8790 4390 c0 -5 5 -10 10 -10 6 0 10 5 10 10 0 6 -4 10 -10 10 -5 0
-10 -4 -10 -10z"/>
<path d="M9051 4384 c0 -11 3 -14 6 -6 3 7 2 16 -1 19 -3 4 -6 -2 -5 -13z"/>
<path d="M647 4374 c-10 -11 3 -24 24 -24 10 0 19 7 19 15 0 15 -31 21 -43 9z"/>
<path d="M6870 4365 c0 -8 9 -15 20 -15 11 0 20 7 20 15 0 8 -9 15 -20 15 -11
0 -20 -7 -20 -15z"/>
<path d="M4616 4355 c-3 -8 -1 -15 4 -15 6 0 10 7 10 15 0 8 -2 15 -4 15 -2 0
-6 -7 -10 -15z"/>
<path d="M10837 4355 c-4 -8 -2 -17 3 -20 6 -4 10 3 10 14 0 25 -6 27 -13 6z"/>
<path d="M760 4336 c0 -10 9 -16 21 -16 24 0 21 23 -4 28 -10 2 -17 -3 -17
-12z"/>
<path d="M6980 4335 c0 -10 10 -15 26 -15 22 0 25 2 14 15 -7 8 -19 15 -26 15
-8 0 -14 -7 -14 -15z"/>
<path d="M3177 4334 c-10 -10 -9 -52 2 -58 5 -3 11 2 13 12 6 22 -5 56 -15 46z"/>
<path d="M7956 4321 c-4 -7 -5 -15 -2 -18 9 -9 19 4 14 18 -4 11 -6 11 -12 0z"/>
<path d="M10445 4290 c3 -5 13 -10 21 -10 8 0 12 5 9 10 -3 6 -13 10 -21 10
-8 0 -12 -4 -9 -10z"/>
<path d="M9457 4260 c3 -11 7 -20 9 -20 2 0 4 9 4 20 0 11 -4 20 -9 20 -5 0
-7 -9 -4 -20z"/>
<path d="M1150 4240 c0 -5 5 -10 10 -10 6 0 10 5 10 10 0 6 -4 10 -10 10 -5 0
-10 -4 -10 -10z"/>
<path d="M7370 4240 c0 -5 5 -10 10 -10 6 0 10 5 10 10 0 6 -4 10 -10 10 -5 0
-10 -4 -10 -10z"/>
<path d="M2635 4231 c-3 -5 -1 -12 5 -16 5 -3 10 1 10 9 0 18 -6 21 -15 7z"/>
<path d="M542 4194 c-23 -16 -29 -34 -12 -34 5 0 26 11 46 25 34 23 35 25 13
25 -14 0 -35 -7 -47 -16z"/>
<path d="M1030 4200 c0 -5 5 -10 10 -10 6 0 10 5 10 10 0 6 -4 10 -10 10 -5 0
-10 -4 -10 -10z"/>
<path d="M6762 4194 c-23 -16 -29 -34 -12 -34 5 0 26 11 46 25 34 23 35 25 13
25 -14 0 -35 -7 -47 -16z"/>
<path d="M7250 4200 c0 -5 5 -10 10 -10 6 0 10 5 10 10 0 6 -4 10 -10 10 -5 0
-10 -4 -10 -10z"/>
<path d="M7522 4170 c0 -14 2 -19 5 -12 2 6 2 18 0 25 -3 6 -5 1 -5 -13z"/>
<path d="M5295 4170 c3 -5 8 -10 11 -10 2 0 4 5 4 10 0 6 -5 10 -11 10 -5 0
-7 -4 -4 -10z"/>
<path d="M11515 4170 c3 -5 8 -10 11 -10 2 0 4 5 4 10 0 6 -5 10 -11 10 -5 0
-7 -4 -4 -10z"/>
<path d="M1663 4163 c-18 -6 -16 -23 1 -23 17 0 30 16 19 23 -5 2 -14 2 -20 0z"/>
<path d="M7883 4163 c-18 -6 -16 -23 1 -23 17 0 30 16 19 23 -5 2 -14 2 -20 0z"/>
<path d="M1135 4120 c-3 -5 -2 -10 4 -10 5 0 13 5 16 10 3 6 2 10 -4 10 -5 0
-13 -4 -16 -10z"/>
<path d="M7355 4120 c-8 -13 5 -13 25 0 13 8 13 10 -2 10 -9 0 -20 -4 -23 -10z"/>
<path d="M423 4029 c6 -116 44 -236 101 -321 54 -83 206 -221 206 -188 0 5 4
10 10 10 5 0 7 -6 4 -13 -2 -7 7 -19 21 -27 23 -12 28 -12 37 0 8 12 9 12 4
-2 -4 -13 6 -20 43 -33 74 -24 151 -35 151 -20 0 7 9 20 20 30 22 20 27 7 10
-26 -11 -19 -2 -19 465 -19 468 0 475 0 475 20 0 11 4 20 9 20 5 0 13 -9 16
-20 6 -20 15 -20 371 -20 340 0 364 1 364 18 1 16 1 16 14 0 16 -22 121 -26
130 -5 5 10 7 10 12 0 4 -10 112 -13 491 -13 l485 0 -6 26 c-6 22 -4 25 16 22
17 -2 22 -9 20 -25 l-3 -23 230 0 c227 0 231 0 231 21 0 12 4 17 11 14 6 -4 8
-14 5 -22 -9 -24 456 -13 534 12 174 56 318 175 390 326 22 46 47 116 55 154
17 80 20 185 5 185 -5 0 -10 -12 -10 -27 -1 -16 -7 -39 -15 -53 -8 -14 -14
-35 -15 -47 0 -13 -4 -23 -9 -23 -5 0 -22 -21 -37 -47 -47 -81 -154 -177 -246
-222 -82 -40 -180 -71 -225 -71 -18 0 -23 -6 -23 -26 0 -14 -4 -23 -10 -19 -5
3 -10 15 -10 26 0 16 -7 19 -40 19 -35 0 -40 -3 -41 -22 l0 -23 -11 23 c-16
32 -47 30 -40 -3 2 -14 0 -25 -6 -25 -12 0 -24 29 -16 41 3 5 -45 9 -115 9
-105 0 -120 2 -124 18 -4 16 -5 16 -6 0 -1 -17 -19 -18 -231 -18 -214 0 -230
1 -230 18 0 11 -7 18 -19 18 -16 0 -17 -4 -10 -18 5 -10 6 -18 2 -18 -4 -1
-91 0 -191 0 -137 1 -188 -3 -200 -12 -12 -10 -16 -10 -19 0 -3 9 -36 12 -119
12 -95 0 -114 -3 -114 -15 0 -8 -4 -15 -10 -15 -5 0 -10 7 -10 15 0 11 -11 15
-40 15 -38 0 -40 -1 -34 -25 3 -14 3 -25 0 -25 -4 0 -11 11 -16 25 -9 24 -12
25 -113 25 -67 0 -107 4 -115 12 -9 9 -12 9 -12 0 0 -17 -117 -16 -123 1 -4 9
-8 9 -15 -2 -8 -11 -56 -14 -253 -12 -165 0 -246 -3 -256 -10 -10 -9 -13 -8
-13 0 0 9 -32 12 -112 10 -97 -1 -113 1 -110 14 1 9 -2 18 -8 22 -5 3 -10 -3
-10 -14 0 -21 -3 -21 -345 -21 l-345 0 0 -24 c0 -13 -7 -29 -15 -36 -13 -11
-15 -7 -15 24 l0 36 -115 0 c-111 0 -115 1 -105 19 15 29 12 33 -11 21 -12 -7
-18 -18 -15 -26 7 -17 -14 -18 -86 -3 -72 15 -149 49 -141 62 3 5 1 7 -5 4
-14 -9 -43 3 -36 14 3 5 -1 7 -8 4 -18 -7 -120 75 -169 137 -47 60 -91 143
-110 208 -23 81 -32 71 -26 -31z m4883 -176 c-10 -10 -19 5 -10 18 6 11 8 11
12 0 2 -7 1 -15 -2 -18z m-116 -73 c0 -5 -2 -10 -4 -10 -3 0 -8 5 -11 10 -3 6
-1 10 4 10 6 0 11 -4 11 -10z m-4540 -60 c0 -5 -4 -10 -9 -10 -6 0 -13 5 -16
10 -3 6 1 10 9 10 9 0 16 -4 16 -10z m4470 -34 c0 -3 -4 -8 -10 -11 -5 -3 -10
-1 -10 4 0 6 5 11 10 11 6 0 10 -2 10 -4z m65 -16 c-3 -5 -13 -10 -21 -10 -8
0 -12 5 -9 10 3 6 13 10 21 10 8 0 12 -4 9 -10z m-4435 -4 c0 -3 -4 -8 -10
-11 -5 -3 -10 -1 -10 4 0 6 5 11 10 11 6 0 10 -2 10 -4z m-40 -46 c0 -5 -5
-10 -11 -10 -5 0 -7 5 -4 10 3 6 8 10 11 10 2 0 4 -4 4 -10z m1405 -20 c-3 -5
-10 -10 -16 -10 -5 0 -9 5 -9 10 0 6 7 10 16 10 8 0 12 -4 9 -10z m2940 0 c3
-5 1 -10 -4 -10 -6 0 -11 5 -11 10 0 6 2 10 4 10 3 0 8 -4 11 -10z m-4185 -15
c0 -8 -4 -15 -10 -15 -5 0 -10 7 -10 15 0 8 5 15 10 15 6 0 10 -7 10 -15z
m2855 -15 c-5 -8 -11 -8 -17 -2 -6 6 -7 16 -3 22 5 8 11 8 17 2 6 -6 7 -16 3
-22z m-981 4 c11 -27 7 -37 -9 -24 -16 14 -20 40 -6 40 5 0 12 -7 15 -16z
m1526 -25 c0 -18 -18 -9 -23 12 -4 16 -3 18 9 8 8 -6 14 -15 14 -20z m90 21
c-19 -13 -30 -13 -30 0 0 6 10 10 23 10 18 0 19 -2 7 -10z m-3010 -4 c0 -11
-19 -15 -25 -6 -3 5 1 10 9 10 9 0 16 -2 16 -4z m2025 -5 c3 -5 1 -12 -4 -15
-5 -3 -11 1 -15 9 -6 16 9 21 19 6z m155 -11 c0 -11 -4 -20 -9 -20 -14 0 -23
18 -16 30 10 17 25 11 25 -10z m-960 -9 c21 -39 9 -52 -25 -27 -11 8 -16 19
-12 30 9 22 24 20 37 -3z m1094 4 c3 -8 1 -15 -4 -15 -6 0 -10 7 -10 15 0 8 2
15 4 15 2 0 6 -7 10 -15z m-214 -26 c0 -6 -4 -7 -10 -4 -5 3 -10 11 -10 16 0
6 5 7 10 4 6 -3 10 -11 10 -16z m166 -16 c-10 -10 -19 5 -10 18 6 11 8 11 12
0 2 -7 1 -15 -2 -18z m204 19 c0 -13 -12 -22 -22 -16 -10 6 -1 24 13 24 5 0 9
-4 9 -8z m765 -2 c4 -6 -5 -10 -20 -10 -15 0 -24 4 -20 10 3 6 12 10 20 10 8
0 17 -4 20 -10z m-1485 -18 c0 -13 -12 -22 -22 -16 -10 6 -1 24 13 24 5 0 9
-4 9 -8z m-165 -32 c-5 -8 -11 -8 -17 -2 -6 6 -7 16 -3 22 5 8 11 8 17 2 6 -6
7 -16 3 -22z m405 10 c0 -11 -2 -20 -4 -20 -2 0 -6 9 -9 20 -3 11 -1 20 4 20
5 0 9 -9 9 -20z m1565 10 c3 -5 1 -10 -4 -10 -6 0 -11 5 -11 10 0 6 2 10 4 10
3 0 8 -4 11 -10z m-2175 -10 c0 -5 -2 -10 -4 -10 -3 0 -8 5 -11 10 -3 6 -1 10
4 10 6 0 11 -4 11 -10z m128 -2 c-2 -6 -10 -14 -16 -16 -7 -2 -10 2 -6 12 7
18 28 22 22 4z m-1530 -26 c2 -7 -2 -10 -12 -6 -9 3 -16 11 -16 16 0 13 23 5
28 -10z m842 -2 c0 -5 -5 -10 -11 -10 -5 0 -7 5 -4 10 3 6 8 10 11 10 2 0 4
-4 4 -10z m1400 0 c0 -5 -4 -10 -10 -10 -5 0 -10 5 -10 10 0 6 5 10 10 10 6 0
10 -4 10 -10z"/>
<path d="M11567 4113 c-4 -3 -7 -17 -7 -30 0 -13 -7 -38 -16 -54 -8 -17 -13
-37 -10 -45 3 -7 -1 -17 -9 -21 -7 -5 -32 -36 -55 -70 -23 -35 -67 -86 -98
-114 -74 -66 -215 -135 -309 -151 -66 -11 -73 -14 -73 -36 0 -13 -4 -20 -10
-17 -5 3 -10 15 -10 26 0 16 -7 19 -40 19 -35 0 -40 -3 -41 -22 l0 -23 -9 23
c-5 12 -18 22 -28 22 -15 0 -18 -5 -14 -25 2 -14 0 -25 -6 -25 -12 0 -24 29
-16 41 3 5 -46 9 -116 9 -72 0 -119 4 -115 9 3 5 1 12 -5 16 -5 3 -10 -1 -10
-9 0 -14 -28 -16 -230 -16 -214 0 -230 1 -230 18 0 11 -8 18 -20 19 -17 2 -18
-1 -10 -18 6 -10 7 -19 3 -19 -4 -1 -91 0 -191 0 -137 1 -188 -3 -200 -12 -12
-10 -16 -10 -19 0 -3 9 -36 12 -119 12 -95 0 -114 -3 -114 -15 0 -8 -4 -15
-10 -15 -5 0 -10 7 -10 15 0 11 -11 15 -40 15 -38 0 -40 -1 -34 -25 3 -14 3
-25 0 -25 -4 0 -11 11 -16 25 -9 24 -12 25 -113 25 -67 0 -107 4 -115 12 -9 9
-12 9 -12 0 0 -17 -117 -16 -123 1 -4 9 -8 9 -15 -2 -8 -11 -56 -14 -253 -12
-165 0 -246 -3 -256 -10 -10 -9 -13 -8 -13 1 0 8 -30 11 -112 9 -99 -2 -113 0
-110 14 1 8 -2 18 -8 22 -5 3 -10 -3 -10 -14 0 -21 -3 -21 -344 -21 l-345 0
-3 -27 c-4 -39 -28 -42 -28 -4 l0 31 -115 0 c-111 0 -115 1 -105 19 15 29 12
33 -11 21 -12 -7 -18 -18 -15 -26 4 -9 -2 -14 -17 -14 -65 0 -262 73 -250 93
3 6 1 7 -6 3 -17 -11 -114 66 -169 134 -48 59 -108 174 -118 227 -3 18 -11 33
-17 33 -18 0 -1 -171 26 -251 34 -99 69 -159 135 -231 58 -62 142 -127 142
-108 0 5 5 10 11 10 5 0 7 -5 3 -11 -3 -6 0 -15 7 -20 8 -5 17 -3 21 4 5 8 8
7 8 -5 0 -20 83 -54 164 -66 48 -8 55 -7 59 9 3 9 14 22 26 29 22 11 22 11 6
-19 l-16 -31 476 0 c468 0 475 0 475 20 0 11 4 20 9 20 5 0 13 -9 16 -20 6
-20 15 -20 371 -20 340 0 364 1 364 18 1 16 1 16 14 0 16 -22 121 -26 130 -5
5 10 7 10 12 0 4 -10 112 -13 491 -13 l485 0 -6 26 c-6 22 -4 25 16 22 17 -2
22 -9 21 -26 l-3 -22 230 0 c226 0 230 0 230 21 0 12 4 17 11 14 6 -4 8 -14 5
-22 -5 -13 24 -15 236 -11 231 4 247 5 318 30 114 40 168 74 255 162 119 120
171 238 182 414 6 88 4 100 -10 85z m-37 -248 c0 -8 -4 -15 -10 -15 -5 0 -7 7
-4 15 4 8 8 15 10 15 2 0 4 -7 4 -15z m-120 -85 c0 -5 -2 -10 -4 -10 -3 0 -8
5 -11 10 -3 6 -1 10 4 10 6 0 11 -4 11 -10z m-4540 -60 c0 -5 -4 -10 -9 -10
-6 0 -13 5 -16 10 -3 6 1 10 9 10 9 0 16 -4 16 -10z m4470 -34 c0 -3 -4 -8
-10 -11 -5 -3 -10 -1 -10 4 0 6 5 11 10 11 6 0 10 -2 10 -4z m65 -16 c-3 -5
-13 -10 -21 -10 -8 0 -12 5 -9 10 3 6 13 10 21 10 8 0 12 -4 9 -10z m-4435 -4
c0 -3 -4 -8 -10 -11 -5 -3 -10 -1 -10 4 0 6 5 11 10 11 6 0 10 -2 10 -4z m-40
-46 c0 -5 -5 -10 -11 -10 -5 0 -7 5 -4 10 3 6 8 10 11 10 2 0 4 -4 4 -10z
m1410 -20 c0 -5 -7 -10 -15 -10 -8 0 -15 5 -15 10 0 6 7 10 15 10 8 0 15 -4
15 -10z m2935 0 c3 -5 1 -10 -4 -10 -6 0 -11 5 -11 10 0 6 2 10 4 10 3 0 8 -4
11 -10z m-4185 -15 c0 -8 -4 -15 -10 -15 -5 0 -10 7 -10 15 0 8 5 15 10 15 6
0 10 -7 10 -15z m2855 -15 c-5 -8 -11 -8 -17 -2 -6 6 -7 16 -3 22 5 8 11 8 17
2 6 -6 7 -16 3 -22z m-981 4 c11 -28 6 -39 -9 -20 -8 11 -15 23 -15 28 0 14
18 9 24 -8z m1526 -25 c0 -18 -18 -9 -23 12 -4 16 -3 18 9 8 8 -6 14 -15 14
-20z m90 21 c-19 -13 -30 -13 -30 0 0 6 10 10 23 10 18 0 19 -2 7 -10z m-3010
-4 c0 -11 -19 -15 -25 -6 -3 5 1 10 9 10 9 0 16 -2 16 -4z m2025 -6 c3 -5 2
-10 -4 -10 -5 0 -13 5 -16 10 -3 6 -2 10 4 10 5 0 13 -4 16 -10z m155 -10 c0
-21 -15 -27 -25 -10 -7 12 2 30 16 30 5 0 9 -9 9 -20z m-960 -9 c20 -39 9 -52
-24 -28 -11 8 -15 19 -10 30 8 22 21 22 34 -2z m1094 4 c3 -8 1 -15 -4 -15 -6
0 -10 7 -10 15 0 8 2 15 4 15 2 0 6 -7 10 -15z m-214 -26 c0 -6 -4 -7 -10 -4
-5 3 -10 11 -10 16 0 6 5 7 10 4 6 -3 10 -11 10 -16z m166 -16 c-10 -10 -19 5
-10 18 6 11 8 11 12 0 2 -7 1 -15 -2 -18z m204 18 c0 -6 -4 -13 -10 -16 -5 -3
-10 1 -10 9 0 9 5 16 10 16 6 0 10 -4 10 -9z m765 -1 c4 -6 -5 -10 -20 -10
-15 0 -24 4 -20 10 3 6 12 10 20 10 8 0 17 -4 20 -10z m-1490 -29 c-9 -16 -25
-3 -18 15 4 10 9 12 15 6 6 -6 7 -15 3 -21z m-155 -17 c0 -14 -12 -19 -23 -8
-9 9 4 35 14 28 5 -3 9 -12 9 -20z m400 6 c0 -11 -2 -20 -4 -20 -2 0 -6 9 -9
20 -3 11 -1 20 4 20 5 0 9 -9 9 -20z m1565 10 c3 -5 1 -10 -4 -10 -6 0 -11 5
-11 10 0 6 2 10 4 10 3 0 8 -4 11 -10z m-2175 -10 c0 -5 -2 -10 -4 -10 -3 0
-8 5 -11 10 -3 6 -1 10 4 10 6 0 11 -4 11 -10z m128 -2 c-2 -6 -10 -14 -16
-16 -7 -2 -10 2 -6 12 7 18 28 22 22 4z m-1530 -26 c2 -7 -2 -10 -12 -6 -9 3
-16 11 -16 16 0 13 23 5 28 -10z m842 -2 c0 -5 -5 -10 -11 -10 -5 0 -7 5 -4
10 3 6 8 10 11 10 2 0 4 -4 4 -10z m1400 0 c0 -5 -4 -10 -10 -10 -5 0 -10 5
-10 10 0 6 5 10 10 10 6 0 10 -4 10 -10z"/>
<path d="M5190 4061 c0 -12 5 -21 10 -21 6 0 10 6 10 14 0 8 -4 18 -10 21 -5
3 -10 -3 -10 -14z"/>
<path d="M11410 4061 c0 -12 5 -21 10 -21 6 0 10 6 10 14 0 8 -4 18 -10 21 -5
3 -10 -3 -10 -14z"/>
<path d="M700 4060 c0 -5 7 -10 15 -10 8 0 15 5 15 10 0 6 -7 10 -15 10 -8 0
-15 -4 -15 -10z"/>
<path d="M1202 4061 c2 -7 7 -12 11 -12 12 1 9 15 -3 20 -7 2 -11 -2 -8 -8z"/>
<path d="M5295 4060 c-3 -5 -1 -10 4 -10 6 0 11 5 11 10 0 6 -2 10 -4 10 -3 0
-8 -4 -11 -10z"/>
<path d="M6920 4060 c0 -5 7 -10 15 -10 8 0 15 5 15 10 0 6 -7 10 -15 10 -8 0
-15 -4 -15 -10z"/>
<path d="M7426 4061 c-4 -5 -2 -12 3 -15 5 -4 12 -2 15 3 4 5 2 12 -3 15 -5 4
-12 2 -15 -3z"/>
<path d="M11515 4060 c-3 -5 -1 -10 4 -10 6 0 11 5 11 10 0 6 -2 10 -4 10 -3
0 -8 -4 -11 -10z"/>
<path d="M10450 4046 c0 -8 5 -18 10 -21 6 -3 10 1 10 9 0 8 -4 18 -10 21 -5
3 -10 -1 -10 -9z"/>
<path d="M4910 3969 c0 -5 5 -7 10 -4 6 3 10 8 10 11 0 2 -4 4 -10 4 -5 0 -10
-5 -10 -11z"/>
<path d="M4995 3970 c-4 -6 5 -10 20 -10 15 0 24 4 20 10 -3 6 -12 10 -20 10
-8 0 -17 -4 -20 -10z"/>
<path d="M11215 3970 c-4 -6 5 -10 20 -10 15 0 24 4 20 10 -3 6 -12 10 -20 10
-8 0 -17 -4 -20 -10z"/>
<path d="M3220 3930 c0 -5 5 -10 10 -10 6 0 10 5 10 10 0 6 -4 10 -10 10 -5 0
-10 -4 -10 -10z"/>
<path d="M10666 3924 c-9 -24 -7 -28 9 -14 17 14 20 30 6 30 -5 0 -12 -7 -15
-16z"/>
<path d="M630 3920 c0 -5 5 -10 11 -10 5 0 7 5 4 10 -3 6 -8 10 -11 10 -2 0
-4 -4 -4 -10z"/>
<path d="M4580 3920 c0 -5 5 -10 10 -10 6 0 10 5 10 10 0 6 -4 10 -10 10 -5 0
-10 -4 -10 -10z"/>
<path d="M6850 3920 c0 -5 5 -10 10 -10 6 0 10 5 10 10 0 6 -4 10 -10 10 -5 0
-10 -4 -10 -10z"/>
<path d="M10105 3920 c3 -5 11 -10 16 -10 6 0 7 5 4 10 -3 6 -11 10 -16 10 -6
0 -7 -4 -4 -10z"/>
<path d="M10800 3920 c0 -5 5 -10 10 -10 6 0 10 5 10 10 0 6 -4 10 -10 10 -5
0 -10 -4 -10 -10z"/>
<path d="M1080 3910 c0 -5 5 -10 10 -10 6 0 10 5 10 10 0 6 -4 10 -10 10 -5 0
-10 -4 -10 -10z"/>
<path d="M7300 3910 c0 -5 5 -10 10 -10 6 0 10 5 10 10 0 6 -4 10 -10 10 -5 0
-10 -4 -10 -10z"/>
<path d="M1006 3895 c-17 -17 -22 -45 -8 -45 10 0 35 50 29 57 -3 2 -12 -3
-21 -12z"/>
<path d="M7226 3895 c-18 -18 -21 -45 -6 -45 11 0 34 50 26 57 -2 2 -11 -3
-20 -12z"/>
<path d="M7656 3874 c-9 -24 -7 -28 9 -14 17 14 20 30 6 30 -5 0 -12 -7 -15
-16z"/>
<path d="M851 3864 c0 -11 3 -14 6 -6 3 7 2 16 -1 19 -3 4 -6 -2 -5 -13z"/>
<path d="M7071 3864 c0 -11 3 -14 6 -6 3 7 2 16 -1 19 -3 4 -6 -2 -5 -13z"/>
<path d="M4475 3860 c3 -5 8 -10 11 -10 2 0 4 5 4 10 0 6 -5 10 -11 10 -5 0
-7 -4 -4 -10z"/>
<path d="M5158 3863 c7 -3 16 -2 19 1 4 3 -2 6 -13 5 -11 0 -14 -3 -6 -6z"/>
<path d="M10695 3860 c3 -5 8 -10 11 -10 2 0 4 5 4 10 0 6 -5 10 -11 10 -5 0
-7 -4 -4 -10z"/>
<path d="M11378 3863 c7 -3 16 -2 19 1 4 3 -2 6 -13 5 -11 0 -14 -3 -6 -6z"/>
<path d="M1175 3850 c3 -5 10 -10 16 -10 5 0 9 5 9 10 0 6 -7 10 -16 10 -8 0
-12 -4 -9 -10z"/>
<path d="M1256 3838 c-9 -36 -7 -78 5 -78 5 0 8 3 5 8 -2 4 -1 26 4 50 8 43
-3 59 -14 20z"/>
<path d="M7395 3850 c3 -5 10 -10 16 -10 5 0 9 5 9 10 0 6 -7 10 -16 10 -8 0
-12 -4 -9 -10z"/>
<path d="M7480 3841 c0 -10 -3 -33 -6 -50 -4 -20 -2 -31 4 -31 6 0 9 7 6 15
-4 8 -2 15 2 15 5 0 9 16 9 35 0 19 -3 35 -7 35 -5 0 -8 -8 -8 -19z"/>
<path d="M2370 3839 c0 -5 5 -7 10 -4 6 3 10 8 10 11 0 2 -4 4 -10 4 -5 0 -10
-5 -10 -11z"/>
<path d="M3340 3840 c0 -5 5 -10 10 -10 6 0 10 5 10 10 0 6 -4 10 -10 10 -5 0
-10 -4 -10 -10z"/>
<path d="M4640 3845 c1 -6 7 -21 16 -35 l15 -25 -7 25 c-7 26 -24 52 -24 35z"/>
<path d="M8590 3839 c0 -5 5 -7 10 -4 6 3 10 8 10 11 0 2 -4 4 -10 4 -5 0 -10
-5 -10 -11z"/>
<path d="M9560 3840 c0 -5 5 -10 10 -10 6 0 10 5 10 10 0 6 -4 10 -10 10 -5 0
-10 -4 -10 -10z"/>
<path d="M10860 3843 c1 -5 8 -19 16 -33 8 -14 13 -17 10 -7 -3 10 -6 25 -6
33 0 8 -4 14 -10 14 -5 0 -10 -3 -10 -7z"/>
<path d="M1985 3831 c-3 -5 -1 -12 5 -16 5 -3 10 1 10 9 0 18 -6 21 -15 7z"/>
<path d="M8205 3831 c-3 -5 -1 -12 5 -16 5 -3 10 1 10 9 0 18 -6 21 -15 7z"/>
<path d="M2210 3814 c0 -8 5 -12 10 -9 6 4 8 11 5 16 -9 14 -15 11 -15 -7z"/>
<path d="M2500 3820 c0 -5 5 -10 11 -10 5 0 7 5 4 10 -3 6 -8 10 -11 10 -2 0
-4 -4 -4 -10z"/>
<path d="M2565 3820 c3 -5 10 -10 16 -10 5 0 9 5 9 10 0 6 -7 10 -16 10 -8 0
-12 -4 -9 -10z"/>
<path d="M8430 3814 c0 -8 5 -12 10 -9 6 4 8 11 5 16 -9 14 -15 11 -15 -7z"/>
<path d="M8720 3820 c0 -5 5 -10 11 -10 5 0 7 5 4 10 -3 6 -8 10 -11 10 -2 0
-4 -4 -4 -10z"/>
<path d="M8785 3820 c3 -5 10 -10 16 -10 5 0 9 5 9 10 0 6 -7 10 -16 10 -8 0
-12 -4 -9 -10z"/>
<path d="M3200 3804 c0 -8 5 -12 10 -9 6 4 8 11 5 16 -9 14 -15 11 -15 -7z"/>
<path d="M4753 3804 c-3 -8 -1 -20 6 -27 8 -8 11 -4 11 16 0 30 -7 35 -17 11z"/>
<path d="M9420 3805 c0 -8 5 -15 10 -15 6 0 10 7 10 15 0 8 -4 15 -10 15 -5 0
-10 -7 -10 -15z"/>
<path d="M10977 3807 c-3 -8 -1 -20 4 -28 6 -10 9 -7 9 14 0 29 -5 35 -13 14z"/>
<path d="M2095 3800 c-3 -5 -1 -10 4 -10 6 0 11 5 11 10 0 6 -2 10 -4 10 -3 0
-8 -4 -11 -10z"/>
<path d="M3110 3798 c0 -9 5 -20 10 -23 13 -8 13 5 0 25 -8 13 -10 13 -10 -2z"/>
<path d="M4590 3803 c0 -5 4 -15 10 -23 11 -18 25 -7 17 15 -6 15 -27 21 -27
8z"/>
<path d="M8315 3800 c-3 -5 -1 -10 4 -10 6 0 11 5 11 10 0 6 -2 10 -4 10 -3 0
-8 -4 -11 -10z"/>
<path d="M9330 3805 c0 -5 5 -17 10 -25 5 -8 10 -10 10 -5 0 6 -5 17 -10 25
-5 8 -10 11 -10 5z"/>
<path d="M10810 3803 c0 -5 4 -15 10 -23 11 -18 25 -7 17 15 -6 15 -27 21 -27
8z"/>
<path d="M851 3784 c0 -11 3 -14 6 -6 3 7 2 16 -1 19 -3 4 -6 -2 -5 -13z"/>
<path d="M2727 3783 c-4 -6 0 -19 8 -29 11 -15 14 -16 15 -4 0 21 -16 44 -23
33z"/>
<path d="M3705 3781 c-6 -11 9 -23 19 -14 9 9 7 23 -3 23 -6 0 -12 -4 -16 -9z"/>
<path d="M7070 3779 c0 -5 5 -7 10 -4 6 3 10 8 10 11 0 2 -4 4 -10 4 -5 0 -10
-5 -10 -11z"/>
<path d="M8947 3783 c-4 -6 0 -19 8 -29 11 -15 14 -16 15 -4 0 21 -16 44 -23
33z"/>
<path d="M9925 3781 c-6 -11 9 -23 19 -14 9 9 7 23 -3 23 -6 0 -12 -4 -16 -9z"/>
<path d="M4335 3770 c-8 -13 5 -13 25 0 13 8 13 10 -2 10 -9 0 -20 -4 -23 -10z"/>
<path d="M10555 3770 c-8 -13 5 -13 25 0 13 8 13 10 -2 10 -9 0 -20 -4 -23
-10z"/>
<path d="M3507 3756 c-6 -15 1 -26 15 -26 11 0 10 27 -1 34 -5 3 -11 0 -14 -8z"/>
<path d="M4250 3755 c0 -8 4 -15 10 -15 5 0 7 7 4 15 -4 8 -8 15 -10 15 -2 0
-4 -7 -4 -15z"/>
<path d="M9730 3751 c0 -12 5 -21 10 -21 6 0 10 6 10 14 0 8 -4 18 -10 21 -5
3 -10 -3 -10 -14z"/>
<path d="M10470 3755 c0 -8 4 -15 10 -15 5 0 7 7 4 15 -4 8 -8 15 -10 15 -2 0
-4 -7 -4 -15z"/>
<path d="M2535 3741 c-6 -10 21 -41 36 -41 12 0 11 7 -1 31 -11 20 -25 25 -35
10z"/>
<path d="M8760 3731 c0 -17 27 -37 37 -27 7 7 -17 46 -27 46 -6 0 -10 -9 -10
-19z"/>
<path d="M3435 3720 c3 -5 8 -10 11 -10 2 0 4 5 4 10 0 6 -5 10 -11 10 -5 0
-7 -4 -4 -10z"/>
<path d="M3807 3723 c-4 -3 -7 -11 -7 -17 0 -6 5 -5 12 2 6 6 9 14 7 17 -3 3
-9 2 -12 -2z"/>
<path d="M4555 3720 c-3 -5 -1 -10 4 -10 6 0 11 5 11 10 0 6 -2 10 -4 10 -3 0
-8 -4 -11 -10z"/>
<path d="M9655 3720 c3 -5 8 -10 11 -10 2 0 4 5 4 10 0 6 -5 10 -11 10 -5 0
-7 -4 -4 -10z"/>
<path d="M10027 3723 c-4 -3 -7 -11 -7 -17 0 -6 5 -5 12 2 6 6 9 14 7 17 -3 3
-9 2 -12 -2z"/>
<path d="M10775 3720 c-3 -5 -1 -10 4 -10 6 0 11 5 11 10 0 6 -2 10 -4 10 -3
0 -8 -4 -11 -10z"/>
<path d="M3080 3694 c0 -8 5 -12 10 -9 6 4 8 11 5 16 -9 14 -15 11 -15 -7z"/>
<path d="M9300 3694 c0 -8 5 -12 10 -9 6 4 8 11 5 16 -9 14 -15 11 -15 -7z"/>
<path d="M2922 3680 c0 -14 2 -19 5 -12 2 6 2 18 0 25 -3 6 -5 1 -5 -13z"/>
<path d="M9142 3680 c0 -14 2 -19 5 -12 2 6 2 18 0 25 -3 6 -5 1 -5 -13z"/>
<path d="M2840 3669 c0 -5 5 -7 10 -4 6 3 10 8 10 11 0 2 -4 4 -10 4 -5 0 -10
-5 -10 -11z"/>
<path d="M9060 3669 c0 -5 5 -7 10 -4 6 3 10 8 10 11 0 2 -4 4 -10 4 -5 0 -10
-5 -10 -11z"/>
<path d="M1300 3661 c0 -5 7 -11 15 -15 8 -3 15 -1 15 3 0 5 -7 11 -15 15 -8
3 -15 1 -15 -3z"/>
<path d="M7520 3661 c0 -5 7 -11 15 -15 8 -3 15 -1 15 3 0 5 -7 11 -15 15 -8
3 -15 1 -15 -3z"/>
<path d="M2155 3650 c-3 -5 -1 -10 4 -10 6 0 11 5 11 10 0 6 -2 10 -4 10 -3 0
-8 -4 -11 -10z"/>
<path d="M8375 3650 c-3 -5 -1 -10 4 -10 6 0 11 5 11 10 0 6 -2 10 -4 10 -3 0
-8 -4 -11 -10z"/>
</g>
</svg>
